<?xml version="1.0" encoding="utf-8" standalone="no"?>
<!DOCTYPE svg PUBLIC "-//W3C//DTD SVG 1.1//EN"
  "http://www.w3.org/Graphics/SVG/1.1/DTD/svg11.dtd">
<svg xmlns:xlink="http://www.w3.org/1999/xlink" width="576pt" height="576pt" viewBox="0 0 576 576" xmlns="http://www.w3.org/2000/svg" version="1.1">
 <metadata>
  <rdf:RDF xmlns:dc="http://purl.org/dc/elements/1.1/" xmlns:cc="http://creativecommons.org/ns#" xmlns:rdf="http://www.w3.org/1999/02/22-rdf-syntax-ns#">
   <cc:Work>
    <dc:type rdf:resource="http://purl.org/dc/dcmitype/StillImage"/>
    <dc:date>2025-03-13T16:58:16.729355</dc:date>
    <dc:format>image/svg+xml</dc:format>
    <dc:creator>
     <cc:Agent>
      <dc:title>Matplotlib v3.10.1, https://matplotlib.org/</dc:title>
     </cc:Agent>
    </dc:creator>
   </cc:Work>
  </rdf:RDF>
 </metadata>
 <defs>
  <style type="text/css">*{stroke-linejoin: round; stroke-linecap: butt}</style>
 </defs>
 <g id="figure_1">
  <g id="patch_1">
   <path d="M 0 576 
L 576 576 
L 576 0 
L 0 0 
L 0 576 
z
" style="fill: none"/>
  </g>
  <g id="patch_2">
   <path d="M 73.44 512.64 
L 516.96 512.64 
L 516.96 69.12 
L 73.44 69.12 
L 73.44 512.64 
z
" style="fill: none"/>
  </g>
  <g id="axes_1">
   <g id="Poly3DCollection_1">
    <path d="M 311.430721 265.783598 
L 340.813813 304.696636 
L 291.927004 316.794561 
z
" clip-path="url(#p5add0824ff)" style="fill: #393939"/>
    <path d="M 311.430721 265.783598 
L 291.927004 316.794561 
L 257.294937 272.214059 
z
" clip-path="url(#p5add0824ff)" style="fill: #404040"/>
    <path d="M 311.430721 265.783598 
L 350.788129 268.500044 
L 340.813813 304.696636 
z
" clip-path="url(#p5add0824ff)" style="fill: #434343"/>
    <path d="M 311.430721 265.783598 
L 257.294937 272.214059 
L 281.345305 228.001018 
z
" clip-path="url(#p5add0824ff)" style="fill: #525252"/>
    <path d="M 311.430721 265.783598 
L 318.992179 227.442887 
L 350.788129 268.500044 
z
" clip-path="url(#p5add0824ff)" style="fill: #535353"/>
    <path d="M 311.430721 265.783598 
L 281.345305 228.001018 
L 318.992179 227.442887 
z
" clip-path="url(#p5add0824ff)" style="fill: #5c5c5c"/>
    <path d="M 291.927004 316.794561 
L 340.813813 304.696636 
L 321.08585 356.460629 
z
" clip-path="url(#p5add0824ff)" style="fill: #292929"/>
    <path d="M 237.038627 324.310988 
L 257.294937 272.214059 
L 291.927004 316.794561 
z
" clip-path="url(#p5add0824ff)" style="fill: #363636"/>
    <path d="M 350.788129 268.500044 
L 379.568552 307.716661 
L 340.813813 304.696636 
z
" clip-path="url(#p5add0824ff)" style="fill: #3d3d3d"/>
    <path d="M 359.186687 229.644405 
L 350.788129 268.500044 
L 318.992179 227.442887 
z
" clip-path="url(#p5add0824ff)" style="fill: #5c5c5c"/>
    <path d="M 257.294937 272.214059 
L 226.728146 235.004149 
L 281.345305 228.001018 
z
" clip-path="url(#p5add0824ff)" style="fill: #5b5b5b"/>
    <path d="M 273.000296 365.688965 
L 291.927004 316.794561 
L 321.08585 356.460629 
z
" clip-path="url(#p5add0824ff)" style="fill: #1e1e1e"/>
    <path d="M 273.000296 365.688965 
L 237.038627 324.310988 
L 291.927004 316.794561 
z
" clip-path="url(#p5add0824ff)" style="fill: #252525"/>
    <path d="M 367.937873 342.688798 
L 321.08585 356.460629 
L 340.813813 304.696636 
z
" clip-path="url(#p5add0824ff)" style="fill: #262626"/>
    <path d="M 318.992179 227.442887 
L 281.345305 228.001018 
L 288.827414 190.551376 
z
" clip-path="url(#p5add0824ff)" style="fill: #6d6d6d"/>
    <path d="M 367.937873 342.688798 
L 340.813813 304.696636 
L 379.568552 307.716661 
z
" clip-path="url(#p5add0824ff)" style="fill: #303030"/>
    <path d="M 206.089743 279.715641 
L 257.294937 272.214059 
L 237.038627 324.310988 
z
" clip-path="url(#p5add0824ff)" style="fill: #404040"/>
    <path d="M 388.396696 271.929274 
L 350.788129 268.500044 
L 359.186687 229.644405 
z
" clip-path="url(#p5add0824ff)" style="fill: #555555"/>
    <path d="M 388.396696 271.929274 
L 379.568552 307.716661 
L 350.788129 268.500044 
z
" clip-path="url(#p5add0824ff)" style="fill: #454545"/>
    <path d="M 206.089743 279.715641 
L 226.728146 235.004149 
L 257.294937 272.214059 
z
" clip-path="url(#p5add0824ff)" style="fill: #525252"/>
    <path d="M 325.883576 191.116666 
L 359.186687 229.644405 
L 318.992179 227.442887 
z
" clip-path="url(#p5add0824ff)" style="fill: #6e6e6e"/>
    <path d="M 325.883576 191.116666 
L 318.992179 227.442887 
L 288.827414 190.551376 
z
" clip-path="url(#p5add0824ff)" style="fill: #767676"/>
    <path d="M 252.150326 193.370652 
L 281.345305 228.001018 
L 226.728146 235.004149 
z
" clip-path="url(#p5add0824ff)" style="fill: #6d6d6d"/>
    <path d="M 273.000296 365.688965 
L 321.08585 356.460629 
L 305.25553 387.876353 
z
" clip-path="url(#p5add0824ff)" style="fill: #141414"/>
    <path d="M 252.150326 193.370652 
L 288.827414 190.551376 
L 281.345305 228.001018 
z
" clip-path="url(#p5add0824ff)" style="fill: #767676"/>
    <path d="M 367.937873 342.688798 
L 353.84763 375.776538 
L 321.08585 356.460629 
z
" clip-path="url(#p5add0824ff)" style="fill: #1b1b1b"/>
    <path d="M 388.396696 271.929274 
L 359.186687 229.644405 
L 394.142042 236.413915 
z
" clip-path="url(#p5add0824ff)" style="fill: #5e5e5e"/>
    <path d="M 273.000296 365.688965 
L 226.271673 369.84595 
L 237.038627 324.310988 
z
" clip-path="url(#p5add0824ff)" style="fill: #1e1e1e"/>
    <path d="M 305.25553 387.876353 
L 321.08585 356.460629 
L 353.84763 375.776538 
z
" clip-path="url(#p5add0824ff)" style="fill: #131313"/>
    <path d="M 325.883576 191.116666 
L 362.18184 195.053578 
L 359.186687 229.644405 
z
" clip-path="url(#p5add0824ff)" style="fill: #777777"/>
    <path d="M 367.937873 342.688798 
L 379.568552 307.716661 
L 411.009901 325.082074 
z
" clip-path="url(#p5add0824ff)" style="fill: #303030"/>
    <path d="M 206.089743 279.715641 
L 237.038627 324.310988 
L 191.377126 325.082074 
z
" clip-path="url(#p5add0824ff)" style="fill: #393939"/>
    <path d="M 388.396696 271.929274 
L 420.354145 288.141123 
L 379.568552 307.716661 
z
" clip-path="url(#p5add0824ff)" style="fill: #454545"/>
    <path d="M 359.186687 229.644405 
L 362.18184 195.053578 
L 394.142042 236.413915 
z
" clip-path="url(#p5add0824ff)" style="fill: #6e6e6e"/>
    <path d="M 206.089743 279.715641 
L 193.056915 243.642708 
L 226.728146 235.004149 
z
" clip-path="url(#p5add0824ff)" style="fill: #5c5c5c"/>
    <path d="M 237.038627 324.310988 
L 226.271673 369.84595 
L 191.377126 325.082074 
z
" clip-path="url(#p5add0824ff)" style="fill: #292929"/>
    <path d="M 273.000296 365.688965 
L 305.25553 387.876353 
L 254.362186 395.204987 
z
" clip-path="url(#p5add0824ff)" style="fill: #0f0f0f"/>
    <path d="M 252.150326 193.370652 
L 226.728146 235.004149 
L 216.986953 199.50948 
z
" clip-path="url(#p5add0824ff)" style="fill: #767676"/>
    <path d="M 273.000296 365.688965 
L 254.362186 395.204987 
L 226.271673 369.84595 
z
" clip-path="url(#p5add0824ff)" style="fill: #141414"/>
    <path d="M 420.354145 288.141123 
L 411.009901 325.082074 
L 379.568552 307.716661 
z
" clip-path="url(#p5add0824ff)" style="fill: #3d3d3d"/>
    <path d="M 325.883576 191.116666 
L 288.827414 190.551376 
L 319.288275 157.408043 
z
" clip-path="url(#p5add0824ff)" style="fill: #898989"/>
    <path d="M 367.937873 342.688798 
L 391.289752 377.686652 
L 353.84763 375.776538 
z
" clip-path="url(#p5add0824ff)" style="fill: #1b1b1b"/>
    <path d="M 193.056915 243.642708 
L 216.986953 199.50948 
L 226.728146 235.004149 
z
" clip-path="url(#p5add0824ff)" style="fill: #6d6d6d"/>
    <path d="M 388.396696 271.929274 
L 394.142042 236.413915 
L 425.752581 247.872929 
z
" clip-path="url(#p5add0824ff)" style="fill: #5e5e5e"/>
    <path d="M 252.150326 193.370652 
L 281.011124 157.129396 
L 288.827414 190.551376 
z
" clip-path="url(#p5add0824ff)" style="fill: #898989"/>
    <path d="M 337.703218 405.934963 
L 305.25553 387.876353 
L 353.84763 375.776538 
z
" clip-path="url(#p5add0824ff)" style="fill: #0d0d0d"/>
    <path d="M 367.937873 342.688798 
L 411.009901 325.082074 
L 391.289752 377.686652 
z
" clip-path="url(#p5add0824ff)" style="fill: #262626"/>
    <path d="M 396.590013 202.270694 
L 394.142042 236.413915 
L 362.18184 195.053578 
z
" clip-path="url(#p5add0824ff)" style="fill: #777777"/>
    <path d="M 206.089743 279.715641 
L 173.951682 292.024082 
L 193.056915 243.642708 
z
" clip-path="url(#p5add0824ff)" style="fill: #535353"/>
    <path d="M 206.089743 279.715641 
L 191.377126 325.082074 
L 173.951682 292.024082 
z
" clip-path="url(#p5add0824ff)" style="fill: #434343"/>
    <path d="M 388.396696 271.929274 
L 425.752581 247.872929 
L 420.354145 288.141123 
z
" clip-path="url(#p5add0824ff)" style="fill: #555555"/>
    <path d="M 325.883576 191.116666 
L 360.107196 162.857299 
L 362.18184 195.053578 
z
" clip-path="url(#p5add0824ff)" style="fill: #888888"/>
    <path d="M 319.288275 157.408043 
L 288.827414 190.551376 
L 281.011124 157.129396 
z
" clip-path="url(#p5add0824ff)" style="fill: #929292"/>
    <path d="M 287.274512 417.92647 
L 254.362186 395.204987 
L 305.25553 387.876353 
z
" clip-path="url(#p5add0824ff)" style="fill: #090909"/>
    <path d="M 325.883576 191.116666 
L 319.288275 157.408043 
L 360.107196 162.857299 
z
" clip-path="url(#p5add0824ff)" style="fill: #919191"/>
    <path d="M 337.703218 405.934963 
L 287.274512 417.92647 
L 305.25553 387.876353 
z
" clip-path="url(#p5add0824ff)" style="fill: #080808"/>
    <path d="M 252.150326 193.370652 
L 216.986953 199.50948 
L 225.467656 163.870794 
z
" clip-path="url(#p5add0824ff)" style="fill: #898989"/>
    <path d="M 184.461426 208.822378 
L 216.986953 199.50948 
L 193.056915 243.642708 
z
" clip-path="url(#p5add0824ff)" style="fill: #767676"/>
    <path d="M 183.511808 368.59641 
L 191.377126 325.082074 
L 226.271673 369.84595 
z
" clip-path="url(#p5add0824ff)" style="fill: #262626"/>
    <path d="M 252.150326 193.370652 
L 225.467656 163.870794 
L 281.011124 157.129396 
z
" clip-path="url(#p5add0824ff)" style="fill: #929292"/>
    <path d="M 337.703218 405.934963 
L 353.84763 375.776538 
L 374.838528 409.439571 
z
" clip-path="url(#p5add0824ff)" style="fill: #0d0d0d"/>
    <path d="M 254.362186 395.204987 
L 208.706119 396.604844 
L 226.271673 369.84595 
z
" clip-path="url(#p5add0824ff)" style="fill: #131313"/>
    <path d="M 396.590013 202.270694 
L 427.98994 212.594679 
L 394.142042 236.413915 
z
" clip-path="url(#p5add0824ff)" style="fill: #777777"/>
    <path d="M 374.838528 409.439571 
L 353.84763 375.776538 
L 391.289752 377.686652 
z
" clip-path="url(#p5add0824ff)" style="fill: #131313"/>
    <path d="M 425.752581 247.872929 
L 394.142042 236.413915 
L 427.98994 212.594679 
z
" clip-path="url(#p5add0824ff)" style="fill: #6e6e6e"/>
    <path d="M 447.82686 304.53163 
L 411.009901 325.082074 
L 420.354145 288.141123 
z
" clip-path="url(#p5add0824ff)" style="fill: #434343"/>
    <path d="M 396.590013 202.270694 
L 362.18184 195.053578 
L 395.598125 170.604821 
z
" clip-path="url(#p5add0824ff)" style="fill: #888888"/>
    <path d="M 160.622202 255.329452 
L 193.056915 243.642708 
L 173.951682 292.024082 
z
" clip-path="url(#p5add0824ff)" style="fill: #5c5c5c"/>
    <path d="M 173.951682 292.024082 
L 191.377126 325.082074 
L 162.570922 337.494245 
z
" clip-path="url(#p5add0824ff)" style="fill: #3d3d3d"/>
    <path d="M 360.107196 162.857299 
L 395.598125 170.604821 
L 362.18184 195.053578 
z
" clip-path="url(#p5add0824ff)" style="fill: #919191"/>
    <path d="M 184.461426 208.822378 
L 193.056915 243.642708 
L 160.622202 255.329452 
z
" clip-path="url(#p5add0824ff)" style="fill: #6e6e6e"/>
    <path d="M 434.093568 358.86189 
L 391.289752 377.686652 
L 411.009901 325.082074 
z
" clip-path="url(#p5add0824ff)" style="fill: #292929"/>
    <path d="M 237.340368 420.6088 
L 254.362186 395.204987 
L 287.274512 417.92647 
z
" clip-path="url(#p5add0824ff)" style="fill: #080808"/>
    <path d="M 183.511808 368.59641 
L 226.271673 369.84595 
L 208.706119 396.604844 
z
" clip-path="url(#p5add0824ff)" style="fill: #1b1b1b"/>
    <path d="M 425.752581 247.872929 
L 454.853603 264.896003 
L 420.354145 288.141123 
z
" clip-path="url(#p5add0824ff)" style="fill: #5c5c5c"/>
    <path d="M 337.703218 405.934963 
L 319.973769 432.153401 
L 287.274512 417.92647 
z
" clip-path="url(#p5add0824ff)" style="fill: #040404"/>
    <path d="M 183.511808 368.59641 
L 162.570922 337.494245 
L 191.377126 325.082074 
z
" clip-path="url(#p5add0824ff)" style="fill: #303030"/>
    <path d="M 237.340368 420.6088 
L 208.706119 396.604844 
L 254.362186 395.204987 
z
" clip-path="url(#p5add0824ff)" style="fill: #0d0d0d"/>
    <path d="M 311.767749 128.448828 
L 319.288275 157.408043 
L 281.011124 157.129396 
z
" clip-path="url(#p5add0824ff)" style="fill: #a3a3a3"/>
    <path d="M 184.461426 208.822378 
L 191.235633 173.011136 
L 216.986953 199.50948 
z
" clip-path="url(#p5add0824ff)" style="fill: #898989"/>
    <path d="M 447.82686 304.53163 
L 434.093568 358.86189 
L 411.009901 325.082074 
z
" clip-path="url(#p5add0824ff)" style="fill: #393939"/>
    <path d="M 396.590013 202.270694 
L 395.598125 170.604821 
L 427.98994 212.594679 
z
" clip-path="url(#p5add0824ff)" style="fill: #888888"/>
    <path d="M 191.235633 173.011136 
L 225.467656 163.870794 
L 216.986953 199.50948 
z
" clip-path="url(#p5add0824ff)" style="fill: #929292"/>
    <path d="M 447.82686 304.53163 
L 420.354145 288.141123 
L 454.853603 264.896003 
z
" clip-path="url(#p5add0824ff)" style="fill: #535353"/>
    <path d="M 360.107196 162.857299 
L 319.288275 157.408043 
L 352.410162 132.155525 
z
" clip-path="url(#p5add0824ff)" style="fill: #a3a3a3"/>
    <path d="M 146.587938 304.295427 
L 160.622202 255.329452 
L 173.951682 292.024082 
z
" clip-path="url(#p5add0824ff)" style="fill: #555555"/>
    <path d="M 146.587938 304.295427 
L 173.951682 292.024082 
L 162.570922 337.494245 
z
" clip-path="url(#p5add0824ff)" style="fill: #454545"/>
    <path d="M 337.703218 405.934963 
L 374.838528 409.439571 
L 353.863451 439.058005 
z
" clip-path="url(#p5add0824ff)" style="fill: #080808"/>
    <path d="M 255.780371 128.511977 
L 281.011124 157.129396 
L 225.467656 163.870794 
z
" clip-path="url(#p5add0824ff)" style="fill: #a4a4a4"/>
    <path d="M 409.423445 407.61648 
L 374.838528 409.439571 
L 391.289752 377.686652 
z
" clip-path="url(#p5add0824ff)" style="fill: #141414"/>
    <path d="M 337.703218 405.934963 
L 353.863451 439.058005 
L 319.973769 432.153401 
z
" clip-path="url(#p5add0824ff)" style="fill: #040404"/>
    <path d="M 287.274512 417.92647 
L 319.973769 432.153401 
L 268.502805 439.796781 
z
" clip-path="url(#p5add0824ff)" style="fill: #010101"/>
    <path d="M 184.461426 208.822378 
L 160.622202 255.329452 
L 155.674892 221.078283 
z
" clip-path="url(#p5add0824ff)" style="fill: #777777"/>
    <path d="M 237.340368 420.6088 
L 287.274512 417.92647 
L 268.502805 439.796781 
z
" clip-path="url(#p5add0824ff)" style="fill: #040404"/>
    <path d="M 455.292082 225.764491 
L 425.752581 247.872929 
L 427.98994 212.594679 
z
" clip-path="url(#p5add0824ff)" style="fill: #777777"/>
    <path d="M 409.423445 407.61648 
L 391.289752 377.686652 
L 434.093568 358.86189 
z
" clip-path="url(#p5add0824ff)" style="fill: #1e1e1e"/>
    <path d="M 311.767749 128.448828 
L 352.410162 132.155525 
L 319.288275 157.408043 
z
" clip-path="url(#p5add0824ff)" style="fill: #acacac"/>
    <path d="M 311.767749 128.448828 
L 281.011124 157.129396 
L 255.780371 128.511977 
z
" clip-path="url(#p5add0824ff)" style="fill: #adadad"/>
    <path d="M 455.292082 225.764491 
L 454.853603 264.896003 
L 425.752581 247.872929 
z
" clip-path="url(#p5add0824ff)" style="fill: #6e6e6e"/>
    <path d="M 391.106048 142.513195 
L 395.598125 170.604821 
L 360.107196 162.857299 
z
" clip-path="url(#p5add0824ff)" style="fill: #a1a1a1"/>
    <path d="M 427.757226 180.44833 
L 427.98994 212.594679 
L 395.598125 170.604821 
z
" clip-path="url(#p5add0824ff)" style="fill: #919191"/>
    <path d="M 183.511808 368.59641 
L 208.706119 396.604844 
L 183.155932 407.702587 
z
" clip-path="url(#p5add0824ff)" style="fill: #1b1b1b"/>
    <path d="M 146.587938 304.295427 
L 136.145134 270.071287 
L 160.622202 255.329452 
z
" clip-path="url(#p5add0824ff)" style="fill: #5e5e5e"/>
    <path d="M 183.511808 368.59641 
L 147.311494 361.827496 
L 162.570922 337.494245 
z
" clip-path="url(#p5add0824ff)" style="fill: #303030"/>
    <path d="M 391.106048 142.513195 
L 360.107196 162.857299 
L 352.410162 132.155525 
z
" clip-path="url(#p5add0824ff)" style="fill: #aaaaaa"/>
    <path d="M 160.622202 255.329452 
L 136.145134 270.071287 
L 155.674892 221.078283 
z
" clip-path="url(#p5add0824ff)" style="fill: #6e6e6e"/>
    <path d="M 237.340368 420.6088 
L 212.391984 433.332016 
L 208.706119 396.604844 
z
" clip-path="url(#p5add0824ff)" style="fill: #0d0d0d"/>
    <path d="M 184.461426 208.822378 
L 158.347131 187.646289 
L 191.235633 173.011136 
z
" clip-path="url(#p5add0824ff)" style="fill: #919191"/>
    <path d="M 184.461426 208.822378 
L 155.674892 221.078283 
L 158.347131 187.646289 
z
" clip-path="url(#p5add0824ff)" style="fill: #888888"/>
    <path d="M 455.292082 225.764491 
L 427.98994 212.594679 
L 427.757226 180.44833 
z
" clip-path="url(#p5add0824ff)" style="fill: #888888"/>
    <path d="M 301.193514 453.472216 
L 268.502805 439.796781 
L 319.973769 432.153401 
z
" clip-path="url(#p5add0824ff)"/>
    <path d="M 202.925726 141.396061 
L 225.467656 163.870794 
L 191.235633 173.011136 
z
" clip-path="url(#p5add0824ff)" style="fill: #a3a3a3"/>
    <path d="M 447.82686 304.53163 
L 454.853603 264.896003 
L 476.040723 282.118906 
z
" clip-path="url(#p5add0824ff)" style="fill: #5c5c5c"/>
    <path d="M 391.106048 142.513195 
L 427.757226 180.44833 
L 395.598125 170.604821 
z
" clip-path="url(#p5add0824ff)" style="fill: #a1a1a1"/>
    <path d="M 447.82686 304.53163 
L 472.444508 334.32239 
L 434.093568 358.86189 
z
" clip-path="url(#p5add0824ff)" style="fill: #404040"/>
    <path d="M 202.925726 141.396061 
L 255.780371 128.511977 
L 225.467656 163.870794 
z
" clip-path="url(#p5add0824ff)" style="fill: #adadad"/>
    <path d="M 146.587938 304.295427 
L 162.570922 337.494245 
L 129.813076 327.613036 
z
" clip-path="url(#p5add0824ff)" style="fill: #454545"/>
    <path d="M 353.863451 439.058005 
L 374.838528 409.439571 
L 390.264427 437.981209 
z
" clip-path="url(#p5add0824ff)" style="fill: #090909"/>
    <path d="M 409.423445 407.61648 
L 390.264427 437.981209 
L 374.838528 409.439571 
z
" clip-path="url(#p5add0824ff)" style="fill: #0f0f0f"/>
    <path d="M 237.340368 420.6088 
L 268.502805 439.796781 
L 247.981016 454.904393 
z
" clip-path="url(#p5add0824ff)" style="fill: #040404"/>
    <path d="M 183.511808 368.59641 
L 183.155932 407.702587 
L 147.311494 361.827496 
z
" clip-path="url(#p5add0824ff)" style="fill: #262626"/>
    <path d="M 212.391984 433.332016 
L 183.155932 407.702587 
L 208.706119 396.604844 
z
" clip-path="url(#p5add0824ff)" style="fill: #131313"/>
    <path d="M 353.863451 439.058005 
L 334.33615 461.073229 
L 319.973769 432.153401 
z
" clip-path="url(#p5add0824ff)" style="fill: #010101"/>
    <path d="M 301.193514 453.472216 
L 319.973769 432.153401 
L 334.33615 461.073229 
z
" clip-path="url(#p5add0824ff)"/>
    <path d="M 129.813076 327.613036 
L 162.570922 337.494245 
L 147.311494 361.827496 
z
" clip-path="url(#p5add0824ff)" style="fill: #3d3d3d"/>
    <path d="M 311.767749 128.448828 
L 342.687288 109.282723 
L 352.410162 132.155525 
z
" clip-path="url(#p5add0824ff)" style="fill: #bcbcbc"/>
    <path d="M 131.685785 235.95382 
L 155.674892 221.078283 
L 136.145134 270.071287 
z
" clip-path="url(#p5add0824ff)" style="fill: #777777"/>
    <path d="M 409.423445 407.61648 
L 434.093568 358.86189 
L 452.208506 389.060734 
z
" clip-path="url(#p5add0824ff)" style="fill: #252525"/>
    <path d="M 237.340368 420.6088 
L 247.981016 454.904393 
L 212.391984 433.332016 
z
" clip-path="url(#p5add0824ff)" style="fill: #080808"/>
    <path d="M 455.292082 225.764491 
L 477.458253 241.424411 
L 454.853603 264.896003 
z
" clip-path="url(#p5add0824ff)" style="fill: #767676"/>
    <path d="M 447.82686 304.53163 
L 476.040723 282.118906 
L 472.444508 334.32239 
z
" clip-path="url(#p5add0824ff)" style="fill: #525252"/>
    <path d="M 146.587938 304.295427 
L 118.064501 288.482587 
L 136.145134 270.071287 
z
" clip-path="url(#p5add0824ff)" style="fill: #5e5e5e"/>
    <path d="M 311.767749 128.448828 
L 255.780371 128.511977 
L 291.439597 100.060204 
z
" clip-path="url(#p5add0824ff)" style="fill: #bfbfbf"/>
    <path d="M 455.292082 225.764491 
L 427.757226 180.44833 
L 457.48327 193.491175 
z
" clip-path="url(#p5add0824ff)" style="fill: #919191"/>
    <path d="M 454.853603 264.896003 
L 477.458253 241.424411 
L 476.040723 282.118906 
z
" clip-path="url(#p5add0824ff)" style="fill: #6d6d6d"/>
    <path d="M 301.193514 453.472216 
L 281.961287 469.008765 
L 268.502805 439.796781 
z
" clip-path="url(#p5add0824ff)"/>
    <path d="M 391.106048 142.513195 
L 424.309214 150.42561 
L 427.757226 180.44833 
z
" clip-path="url(#p5add0824ff)" style="fill: #aaaaaa"/>
    <path d="M 391.106048 142.513195 
L 352.410162 132.155525 
L 383.148995 119.062292 
z
" clip-path="url(#p5add0824ff)" style="fill: #bababa"/>
    <path d="M 434.093568 358.86189 
L 472.444508 334.32239 
L 452.208506 389.060734 
z
" clip-path="url(#p5add0824ff)" style="fill: #363636"/>
    <path d="M 158.347131 187.646289 
L 169.716176 154.039562 
L 191.235633 173.011136 
z
" clip-path="url(#p5add0824ff)" style="fill: #a3a3a3"/>
    <path d="M 146.587938 304.295427 
L 129.813076 327.613036 
L 118.064501 288.482587 
z
" clip-path="url(#p5add0824ff)" style="fill: #555555"/>
    <path d="M 202.925726 141.396061 
L 191.235633 173.011136 
L 169.716176 154.039562 
z
" clip-path="url(#p5add0824ff)" style="fill: #acacac"/>
    <path d="M 158.347131 187.646289 
L 155.674892 221.078283 
L 133.493373 203.117994 
z
" clip-path="url(#p5add0824ff)" style="fill: #919191"/>
    <path d="M 247.981016 454.904393 
L 268.502805 439.796781 
L 281.961287 469.008765 
z
" clip-path="url(#p5add0824ff)" style="fill: #010101"/>
    <path d="M 131.685785 235.95382 
L 133.493373 203.117994 
L 155.674892 221.078283 
z
" clip-path="url(#p5add0824ff)" style="fill: #888888"/>
    <path d="M 311.767749 128.448828 
L 291.439597 100.060204 
L 342.687288 109.282723 
z
" clip-path="url(#p5add0824ff)" style="fill: #c6c6c6"/>
    <path d="M 455.292082 225.764491 
L 457.48327 193.491175 
L 477.458253 241.424411 
z
" clip-path="url(#p5add0824ff)" style="fill: #898989"/>
    <path d="M 427.757226 180.44833 
L 424.309214 150.42561 
L 457.48327 193.491175 
z
" clip-path="url(#p5add0824ff)" style="fill: #a3a3a3"/>
    <path d="M 352.410162 132.155525 
L 342.687288 109.282723 
L 383.148995 119.062292 
z
" clip-path="url(#p5add0824ff)" style="fill: #c2c2c2"/>
    <path d="M 202.925726 141.396061 
L 233.645299 106.762916 
L 255.780371 128.511977 
z
" clip-path="url(#p5add0824ff)" style="fill: #bfbfbf"/>
    <path d="M 409.423445 407.61648 
L 421.013718 430.460925 
L 390.264427 437.981209 
z
" clip-path="url(#p5add0824ff)" style="fill: #141414"/>
    <path d="M 366.793877 462.196966 
L 353.863451 439.058005 
L 390.264427 437.981209 
z
" clip-path="url(#p5add0824ff)" style="fill: #080808"/>
    <path d="M 301.193514 453.472216 
L 281.961287 469.008765 
L 334.33615 461.073229 
z
" clip-path="url(#p5add0824ff)"/>
    <path d="M 366.793877 462.196966 
L 334.33615 461.073229 
L 353.863451 439.058005 
z
" clip-path="url(#p5add0824ff)" style="fill: #040404"/>
    <path d="M 149.108386 399.607372 
L 147.311494 361.827496 
L 183.155932 407.702587 
z
" clip-path="url(#p5add0824ff)" style="fill: #292929"/>
    <path d="M 131.685785 235.95382 
L 136.145134 270.071287 
L 113.480359 253.026472 
z
" clip-path="url(#p5add0824ff)" style="fill: #777777"/>
    <path d="M 190.647455 439.863635 
L 183.155932 407.702587 
L 212.391984 433.332016 
z
" clip-path="url(#p5add0824ff)" style="fill: #141414"/>
    <path d="M 391.106048 142.513195 
L 383.148995 119.062292 
L 424.309214 150.42561 
z
" clip-path="url(#p5add0824ff)" style="fill: #bababa"/>
    <path d="M 409.423445 407.61648 
L 452.208506 389.060734 
L 421.013718 430.460925 
z
" clip-path="url(#p5add0824ff)" style="fill: #1e1e1e"/>
    <path d="M 118.064501 288.482587 
L 113.480359 253.026472 
L 136.145134 270.071287 
z
" clip-path="url(#p5add0824ff)" style="fill: #6e6e6e"/>
    <path d="M 291.439597 100.060204 
L 255.780371 128.511977 
L 233.645299 106.762916 
z
" clip-path="url(#p5add0824ff)" style="fill: #c9c9c9"/>
    <path d="M 120.154701 349.695455 
L 129.813076 327.613036 
L 147.311494 361.827496 
z
" clip-path="url(#p5add0824ff)" style="fill: #434343"/>
    <path d="M 247.981016 454.904393 
L 224.94409 462.793638 
L 212.391984 433.332016 
z
" clip-path="url(#p5add0824ff)" style="fill: #090909"/>
    <path d="M 472.444508 334.32239 
L 476.040723 282.118906 
L 495.116597 310.867253 
z
" clip-path="url(#p5add0824ff)" style="fill: #5b5b5b"/>
    <path d="M 493.53474 259.117648 
L 476.040723 282.118906 
L 477.458253 241.424411 
z
" clip-path="url(#p5add0824ff)" style="fill: #767676"/>
    <path d="M 190.647455 439.863635 
L 149.108386 399.607372 
L 183.155932 407.702587 
z
" clip-path="url(#p5add0824ff)" style="fill: #1e1e1e"/>
    <path d="M 131.685785 235.95382 
L 113.480359 253.026472 
L 133.493373 203.117994 
z
" clip-path="url(#p5add0824ff)" style="fill: #888888"/>
    <path d="M 141.667441 172.757413 
L 169.716176 154.039562 
L 158.347131 187.646289 
z
" clip-path="url(#p5add0824ff)" style="fill: #aaaaaa"/>
    <path d="M 457.48327 193.491175 
L 479.10674 209.255855 
L 477.458253 241.424411 
z
" clip-path="url(#p5add0824ff)" style="fill: #929292"/>
    <path d="M 202.925726 141.396061 
L 169.716176 154.039562 
L 186.105358 127.673143 
z
" clip-path="url(#p5add0824ff)" style="fill: #bcbcbc"/>
    <path d="M 141.667441 172.757413 
L 158.347131 187.646289 
L 133.493373 203.117994 
z
" clip-path="url(#p5add0824ff)" style="fill: #a1a1a1"/>
    <path d="M 120.154701 349.695455 
L 147.311494 361.827496 
L 149.108386 399.607372 
z
" clip-path="url(#p5add0824ff)" style="fill: #393939"/>
    <path d="M 315.655259 477.086078 
L 334.33615 461.073229 
L 281.961287 469.008765 
z
" clip-path="url(#p5add0824ff)" style="fill: #010101"/>
    <path d="M 452.795985 164.479462 
L 457.48327 193.491175 
L 424.309214 150.42561 
z
" clip-path="url(#p5add0824ff)" style="fill: #acacac"/>
    <path d="M 118.064501 288.482587 
L 129.813076 327.613036 
L 106.766278 311.551248 
z
" clip-path="url(#p5add0824ff)" style="fill: #5c5c5c"/>
    <path d="M 190.647455 439.863635 
L 212.391984 433.332016 
L 224.94409 462.793638 
z
" clip-path="url(#p5add0824ff)" style="fill: #0f0f0f"/>
    <path d="M 366.793877 462.196966 
L 334.33615 461.073229 
L 315.655259 477.086078 
z
" clip-path="url(#p5add0824ff)" style="fill: #040404"/>
    <path d="M 202.925726 141.396061 
L 186.105358 127.673143 
L 233.645299 106.762916 
z
" clip-path="url(#p5add0824ff)" style="fill: #c6c6c6"/>
    <path d="M 262.935955 477.994038 
L 247.981016 454.904393 
L 281.961287 469.008765 
z
" clip-path="url(#p5add0824ff)" style="fill: #040404"/>
    <path d="M 483.664856 361.160772 
L 452.208506 389.060734 
L 472.444508 334.32239 
z
" clip-path="url(#p5add0824ff)" style="fill: #404040"/>
    <path d="M 424.309214 150.42561 
L 383.148995 119.062292 
L 416.281669 127.673143 
z
" clip-path="url(#p5add0824ff)" style="fill: #c2c2c2"/>
    <path d="M 371.873362 101.254853 
L 383.148995 119.062292 
L 342.687288 109.282723 
z
" clip-path="url(#p5add0824ff)" style="fill: #cfcfcf"/>
    <path d="M 390.264427 437.981209 
L 421.013718 430.460925 
L 397.392068 456.627928 
z
" clip-path="url(#p5add0824ff)" style="fill: #131313"/>
    <path d="M 366.793877 462.196966 
L 390.264427 437.981209 
L 397.392068 456.627928 
z
" clip-path="url(#p5add0824ff)" style="fill: #0d0d0d"/>
    <path d="M 120.154701 349.695455 
L 106.766278 311.551248 
L 129.813076 327.613036 
z
" clip-path="url(#p5add0824ff)" style="fill: #535353"/>
    <path d="M 291.439597 100.060204 
L 322.39918 87.034926 
L 342.687288 109.282723 
z
" clip-path="url(#p5add0824ff)" style="fill: #d6d6d6"/>
    <path d="M 493.53474 259.117648 
L 495.116597 310.867253 
L 476.040723 282.118906 
z
" clip-path="url(#p5add0824ff)" style="fill: #6d6d6d"/>
    <path d="M 452.795985 164.479462 
L 479.10674 209.255855 
L 457.48327 193.491175 
z
" clip-path="url(#p5add0824ff)" style="fill: #a3a3a3"/>
    <path d="M 493.53474 259.117648 
L 477.458253 241.424411 
L 479.10674 209.255855 
z
" clip-path="url(#p5add0824ff)" style="fill: #898989"/>
    <path d="M 262.935955 477.994038 
L 224.94409 462.793638 
L 247.981016 454.904393 
z
" clip-path="url(#p5add0824ff)" style="fill: #080808"/>
    <path d="M 452.795985 164.479462 
L 424.309214 150.42561 
L 416.281669 127.673143 
z
" clip-path="url(#p5add0824ff)" style="fill: #bcbcbc"/>
    <path d="M 115.026914 219.665335 
L 133.493373 203.117994 
L 113.480359 253.026472 
z
" clip-path="url(#p5add0824ff)" style="fill: #919191"/>
    <path d="M 452.208506 389.060734 
L 459.80031 406.688448 
L 421.013718 430.460925 
z
" clip-path="url(#p5add0824ff)" style="fill: #292929"/>
    <path d="M 483.664856 361.160772 
L 472.444508 334.32239 
L 495.116597 310.867253 
z
" clip-path="url(#p5add0824ff)" style="fill: #525252"/>
    <path d="M 262.935955 477.994038 
L 315.655259 477.086078 
L 281.961287 469.008765 
z
" clip-path="url(#p5add0824ff)" style="fill: #040404"/>
    <path d="M 101.931937 271.769844 
L 113.480359 253.026472 
L 118.064501 288.482587 
z
" clip-path="url(#p5add0824ff)" style="fill: #777777"/>
    <path d="M 371.873362 101.254853 
L 416.281669 127.673143 
L 383.148995 119.062292 
z
" clip-path="url(#p5add0824ff)" style="fill: #cfcfcf"/>
    <path d="M 141.667441 172.757413 
L 133.493373 203.117994 
L 115.026914 219.665335 
z
" clip-path="url(#p5add0824ff)" style="fill: #a1a1a1"/>
    <path d="M 371.873362 101.254853 
L 342.687288 109.282723 
L 322.39918 87.034926 
z
" clip-path="url(#p5add0824ff)" style="fill: #d9d9d9"/>
    <path d="M 271.064275 86.091472 
L 291.439597 100.060204 
L 233.645299 106.762916 
z
" clip-path="url(#p5add0824ff)" style="fill: #dadada"/>
    <path d="M 101.931937 271.769844 
L 118.064501 288.482587 
L 106.766278 311.551248 
z
" clip-path="url(#p5add0824ff)" style="fill: #6e6e6e"/>
    <path d="M 366.793877 462.196966 
L 315.655259 477.086078 
L 350.630373 478.351588 
z
" clip-path="url(#p5add0824ff)" style="fill: #080808"/>
    <path d="M 169.716176 154.039562 
L 156.097874 146.051177 
L 186.105358 127.673143 
z
" clip-path="url(#p5add0824ff)" style="fill: #c2c2c2"/>
    <path d="M 141.667441 172.757413 
L 156.097874 146.051177 
L 169.716176 154.039562 
z
" clip-path="url(#p5add0824ff)" style="fill: #bababa"/>
    <path d="M 483.664856 361.160772 
L 459.80031 406.688448 
L 452.208506 389.060734 
z
" clip-path="url(#p5add0824ff)" style="fill: #393939"/>
    <path d="M 366.793877 462.196966 
L 350.630373 478.351588 
L 397.392068 456.627928 
z
" clip-path="url(#p5add0824ff)" style="fill: #0d0d0d"/>
    <path d="M 190.647455 439.863635 
L 161.669581 431.536022 
L 149.108386 399.607372 
z
" clip-path="url(#p5add0824ff)" style="fill: #252525"/>
    <path d="M 190.647455 439.863635 
L 224.94409 462.793638 
L 205.912302 462.683649 
z
" clip-path="url(#p5add0824ff)" style="fill: #141414"/>
    <path d="M 101.931937 271.769844 
L 115.026914 219.665335 
L 113.480359 253.026472 
z
" clip-path="url(#p5add0824ff)" style="fill: #888888"/>
    <path d="M 271.064275 86.091472 
L 322.39918 87.034926 
L 291.439597 100.060204 
z
" clip-path="url(#p5add0824ff)" style="fill: #e1e1e1"/>
    <path d="M 120.154701 349.695455 
L 149.108386 399.607372 
L 124.070609 383.477404 
z
" clip-path="url(#p5add0824ff)" style="fill: #404040"/>
    <path d="M 424.950071 444.368485 
L 397.392068 456.627928 
L 421.013718 430.460925 
z
" clip-path="url(#p5add0824ff)" style="fill: #1b1b1b"/>
    <path d="M 233.645299 106.762916 
L 186.105358 127.673143 
L 221.276676 98.670104 
z
" clip-path="url(#p5add0824ff)" style="fill: #d6d6d6"/>
    <path d="M 493.53474 259.117648 
L 502.696905 278.282871 
L 495.116597 310.867253 
z
" clip-path="url(#p5add0824ff)" style="fill: #767676"/>
    <path d="M 262.935955 477.994038 
L 296.861835 486.601551 
L 315.655259 477.086078 
z
" clip-path="url(#p5add0824ff)" style="fill: #080808"/>
    <path d="M 452.795985 164.479462 
L 478.630151 186.120937 
L 479.10674 209.255855 
z
" clip-path="url(#p5add0824ff)" style="fill: #adadad"/>
    <path d="M 424.950071 444.368485 
L 421.013718 430.460925 
L 459.80031 406.688448 
z
" clip-path="url(#p5add0824ff)" style="fill: #262626"/>
    <path d="M 120.154701 349.695455 
L 104.270305 332.682846 
L 106.766278 311.551248 
z
" clip-path="url(#p5add0824ff)" style="fill: #5c5c5c"/>
    <path d="M 493.53474 259.117648 
L 479.10674 209.255855 
L 498.589154 236.97546 
z
" clip-path="url(#p5add0824ff)" style="fill: #929292"/>
    <path d="M 452.795985 164.479462 
L 416.281669 127.673143 
L 441.302882 137.621616 
z
" clip-path="url(#p5add0824ff)" style="fill: #c6c6c6"/>
    <path d="M 315.655259 477.086078 
L 296.861835 486.601551 
L 350.630373 478.351588 
z
" clip-path="url(#p5add0824ff)" style="fill: #090909"/>
    <path d="M 262.935955 477.994038 
L 244.825363 479.820099 
L 224.94409 462.793638 
z
" clip-path="url(#p5add0824ff)" style="fill: #0d0d0d"/>
    <path d="M 141.667441 172.757413 
L 115.026914 219.665335 
L 123.957412 187.194262 
z
" clip-path="url(#p5add0824ff)" style="fill: #aaaaaa"/>
    <path d="M 483.664856 361.160772 
L 495.116597 310.867253 
L 498.316245 331.110365 
z
" clip-path="url(#p5add0824ff)" style="fill: #5c5c5c"/>
    <path d="M 271.064275 86.091472 
L 233.645299 106.762916 
L 221.276676 98.670104 
z
" clip-path="url(#p5add0824ff)" style="fill: #e1e1e1"/>
    <path d="M 190.647455 439.863635 
L 205.912302 462.683649 
L 161.669581 431.536022 
z
" clip-path="url(#p5add0824ff)" style="fill: #1e1e1e"/>
    <path d="M 371.873362 101.254853 
L 397.330625 105.492194 
L 416.281669 127.673143 
z
" clip-path="url(#p5add0824ff)" style="fill: #d9d9d9"/>
    <path d="M 141.667441 172.757413 
L 123.957412 187.194262 
L 156.097874 146.051177 
z
" clip-path="url(#p5add0824ff)" style="fill: #bababa"/>
    <path d="M 161.669581 431.536022 
L 124.070609 383.477404 
L 149.108386 399.607372 
z
" clip-path="url(#p5add0824ff)" style="fill: #363636"/>
    <path d="M 371.873362 101.254853 
L 322.39918 87.034926 
L 357.552668 89.983983 
z
" clip-path="url(#p5add0824ff)" style="fill: #e4e4e4"/>
    <path d="M 224.94409 462.793638 
L 244.825363 479.820099 
L 205.912302 462.683649 
z
" clip-path="url(#p5add0824ff)" style="fill: #131313"/>
    <path d="M 498.316245 331.110365 
L 495.116597 310.867253 
L 502.696905 278.282871 
z
" clip-path="url(#p5add0824ff)" style="fill: #6d6d6d"/>
    <path d="M 120.154701 349.695455 
L 124.070609 383.477404 
L 104.270305 332.682846 
z
" clip-path="url(#p5add0824ff)" style="fill: #525252"/>
    <path d="M 350.630373 478.351588 
L 381.302077 471.549615 
L 397.392068 456.627928 
z
" clip-path="url(#p5add0824ff)" style="fill: #131313"/>
    <path d="M 493.53474 259.117648 
L 498.589154 236.97546 
L 502.696905 278.282871 
z
" clip-path="url(#p5add0824ff)" style="fill: #898989"/>
    <path d="M 101.931937 271.769844 
L 103.323127 238.487289 
L 115.026914 219.665335 
z
" clip-path="url(#p5add0824ff)" style="fill: #919191"/>
    <path d="M 176.440705 124.120644 
L 186.105358 127.673143 
L 156.097874 146.051177 
z
" clip-path="url(#p5add0824ff)" style="fill: #cfcfcf"/>
    <path d="M 101.931937 271.769844 
L 106.766278 311.551248 
L 97.748891 291.553719 
z
" clip-path="url(#p5add0824ff)" style="fill: #767676"/>
    <path d="M 483.664856 361.160772 
L 479.228753 383.019194 
L 459.80031 406.688448 
z
" clip-path="url(#p5add0824ff)" style="fill: #434343"/>
    <path d="M 262.935955 477.994038 
L 244.825363 479.820099 
L 296.861835 486.601551 
z
" clip-path="url(#p5add0824ff)" style="fill: #0d0d0d"/>
    <path d="M 478.630151 186.120937 
L 498.589154 236.97546 
L 479.10674 209.255855 
z
" clip-path="url(#p5add0824ff)" style="fill: #a4a4a4"/>
    <path d="M 424.950071 444.368485 
L 397.392068 456.627928 
L 381.302077 471.549615 
z
" clip-path="url(#p5add0824ff)" style="fill: #1b1b1b"/>
    <path d="M 452.795985 164.479462 
L 441.302882 137.621616 
L 478.630151 186.120937 
z
" clip-path="url(#p5add0824ff)" style="fill: #bfbfbf"/>
    <path d="M 176.440705 124.120644 
L 221.276676 98.670104 
L 186.105358 127.673143 
z
" clip-path="url(#p5add0824ff)" style="fill: #d9d9d9"/>
    <path d="M 115.026914 219.665335 
L 103.323127 238.487289 
L 123.957412 187.194262 
z
" clip-path="url(#p5add0824ff)" style="fill: #a3a3a3"/>
    <path d="M 271.064275 86.091472 
L 305.562944 81.413374 
L 322.39918 87.034926 
z
" clip-path="url(#p5add0824ff)" style="fill: #ebebeb"/>
    <path d="M 483.664856 361.160772 
L 498.316245 331.110365 
L 479.228753 383.019194 
z
" clip-path="url(#p5add0824ff)" style="fill: #535353"/>
    <path d="M 106.766278 311.551248 
L 104.270305 332.682846 
L 97.748891 291.553719 
z
" clip-path="url(#p5add0824ff)" style="fill: #6d6d6d"/>
    <path d="M 441.302882 137.621616 
L 416.281669 127.673143 
L 397.330625 105.492194 
z
" clip-path="url(#p5add0824ff)" style="fill: #d6d6d6"/>
    <path d="M 371.873362 101.254853 
L 357.552668 89.983983 
L 397.330625 105.492194 
z
" clip-path="url(#p5add0824ff)" style="fill: #e4e4e4"/>
    <path d="M 331.706219 486.211642 
L 350.630373 478.351588 
L 296.861835 486.601551 
z
" clip-path="url(#p5add0824ff)" style="fill: #0f0f0f"/>
    <path d="M 305.562944 81.413374 
L 357.552668 89.983983 
L 322.39918 87.034926 
z
" clip-path="url(#p5add0824ff)" style="fill: #ececec"/>
    <path d="M 424.950071 444.368485 
L 459.80031 406.688448 
L 448.32344 425.668312 
z
" clip-path="url(#p5add0824ff)" style="fill: #303030"/>
    <path d="M 101.931937 271.769844 
L 97.748891 291.553719 
L 103.323127 238.487289 
z
" clip-path="url(#p5add0824ff)" style="fill: #898989"/>
    <path d="M 331.706219 486.211642 
L 381.302077 471.549615 
L 350.630373 478.351588 
z
" clip-path="url(#p5add0824ff)" style="fill: #141414"/>
    <path d="M 123.957412 187.194262 
L 139.72437 160.886388 
L 156.097874 146.051177 
z
" clip-path="url(#p5add0824ff)" style="fill: #c2c2c2"/>
    <path d="M 479.228753 383.019194 
L 448.32344 425.668312 
L 459.80031 406.688448 
z
" clip-path="url(#p5add0824ff)" style="fill: #3d3d3d"/>
    <path d="M 271.064275 86.091472 
L 221.276676 98.670104 
L 250.799179 87.674422 
z
" clip-path="url(#p5add0824ff)" style="fill: #ebebeb"/>
    <path d="M 504.304599 298.256527 
L 498.316245 331.110365 
L 502.696905 278.282871 
z
" clip-path="url(#p5add0824ff)" style="fill: #767676"/>
    <path d="M 176.440705 124.120644 
L 156.097874 146.051177 
L 139.72437 160.886388 
z
" clip-path="url(#p5add0824ff)" style="fill: #cfcfcf"/>
    <path d="M 296.861835 486.601551 
L 244.825363 479.820099 
L 279.515359 487.146426 
z
" clip-path="url(#p5add0824ff)" style="fill: #131313"/>
    <path d="M 271.064275 86.091472 
L 250.799179 87.674422 
L 305.562944 81.413374 
z
" clip-path="url(#p5add0824ff)" style="fill: #f0f0f0"/>
    <path d="M 228.366595 474.09637 
L 205.912302 462.683649 
L 244.825363 479.820099 
z
" clip-path="url(#p5add0824ff)" style="fill: #1b1b1b"/>
    <path d="M 161.669581 431.536022 
L 205.912302 462.683649 
L 181.913585 447.825899 
z
" clip-path="url(#p5add0824ff)" style="fill: #292929"/>
    <path d="M 501.856396 257.366536 
L 502.696905 278.282871 
L 498.589154 236.97546 
z
" clip-path="url(#p5add0824ff)" style="fill: #929292"/>
    <path d="M 113.815346 206.561114 
L 123.957412 187.194262 
L 103.323127 238.487289 
z
" clip-path="url(#p5add0824ff)" style="fill: #acacac"/>
    <path d="M 331.706219 486.211642 
L 296.861835 486.601551 
L 279.515359 487.146426 
z
" clip-path="url(#p5add0824ff)" style="fill: #141414"/>
    <path d="M 492.701648 351.978978 
L 479.228753 383.019194 
L 498.316245 331.110365 
z
" clip-path="url(#p5add0824ff)" style="fill: #5c5c5c"/>
    <path d="M 424.950071 444.368485 
L 381.302077 471.549615 
L 420.473442 447.825899 
z
" clip-path="url(#p5add0824ff)" style="fill: #262626"/>
    <path d="M 143.532401 410.105456 
L 124.070609 383.477404 
L 161.669581 431.536022 
z
" clip-path="url(#p5add0824ff)" style="fill: #404040"/>
    <path d="M 176.440705 124.120644 
L 202.099728 107.976243 
L 221.276676 98.670104 
z
" clip-path="url(#p5add0824ff)" style="fill: #e4e4e4"/>
    <path d="M 124.070609 383.477404 
L 116.033124 363.597875 
L 104.270305 332.682846 
z
" clip-path="url(#p5add0824ff)" style="fill: #5b5b5b"/>
    <path d="M 340.600895 85.975128 
L 357.552668 89.983983 
L 305.562944 81.413374 
z
" clip-path="url(#p5add0824ff)" style="fill: #f2f2f2"/>
    <path d="M 113.815346 206.561114 
L 139.72437 160.886388 
L 123.957412 187.194262 
z
" clip-path="url(#p5add0824ff)" style="fill: #bcbcbc"/>
    <path d="M 504.304599 298.256527 
L 502.696905 278.282871 
L 501.856396 257.366536 
z
" clip-path="url(#p5add0824ff)" style="fill: #898989"/>
    <path d="M 424.950071 444.368485 
L 420.473442 447.825899 
L 448.32344 425.668312 
z
" clip-path="url(#p5add0824ff)" style="fill: #303030"/>
    <path d="M 504.304599 298.256527 
L 492.701648 351.978978 
L 498.316245 331.110365 
z
" clip-path="url(#p5add0824ff)" style="fill: #6e6e6e"/>
    <path d="M 101.413609 311.651919 
L 97.748891 291.553719 
L 104.270305 332.682846 
z
" clip-path="url(#p5add0824ff)" style="fill: #767676"/>
    <path d="M 250.799179 87.674422 
L 221.276676 98.670104 
L 202.099728 107.976243 
z
" clip-path="url(#p5add0824ff)" style="fill: #ececec"/>
    <path d="M 103.323127 238.487289 
L 97.748891 291.553719 
L 100.688478 258.023905 
z
" clip-path="url(#p5add0824ff)" style="fill: #929292"/>
    <path d="M 490.106718 217.258613 
L 498.589154 236.97546 
L 478.630151 186.120937 
z
" clip-path="url(#p5add0824ff)" style="fill: #adadad"/>
    <path d="M 380.499036 99.848765 
L 397.330625 105.492194 
L 357.552668 89.983983 
z
" clip-path="url(#p5add0824ff)" style="fill: #ececec"/>
    <path d="M 228.366595 474.09637 
L 279.515359 487.146426 
L 244.825363 479.820099 
z
" clip-path="url(#p5add0824ff)" style="fill: #1b1b1b"/>
    <path d="M 460.579552 164.658376 
L 478.630151 186.120937 
L 441.302882 137.621616 
z
" clip-path="url(#p5add0824ff)" style="fill: #c9c9c9"/>
    <path d="M 466.456698 401.048111 
L 448.32344 425.668312 
L 479.228753 383.019194 
z
" clip-path="url(#p5add0824ff)" style="fill: #454545"/>
    <path d="M 228.366595 474.09637 
L 181.913585 447.825899 
L 205.912302 462.683649 
z
" clip-path="url(#p5add0824ff)" style="fill: #262626"/>
    <path d="M 417.083333 122.417792 
L 441.302882 137.621616 
L 397.330625 105.492194 
z
" clip-path="url(#p5add0824ff)" style="fill: #e1e1e1"/>
    <path d="M 331.706219 486.211642 
L 371.984409 471.560955 
L 381.302077 471.549615 
z
" clip-path="url(#p5add0824ff)" style="fill: #1e1e1e"/>
    <path d="M 113.815346 206.561114 
L 103.323127 238.487289 
L 100.688478 258.023905 
z
" clip-path="url(#p5add0824ff)" style="fill: #a3a3a3"/>
    <path d="M 466.456698 401.048111 
L 479.228753 383.019194 
L 492.701648 351.978978 
z
" clip-path="url(#p5add0824ff)" style="fill: #555555"/>
    <path d="M 340.600895 85.975128 
L 380.499036 99.848765 
L 357.552668 89.983983 
z
" clip-path="url(#p5add0824ff)" style="fill: #f2f2f2"/>
    <path d="M 286.120066 84.557256 
L 305.562944 81.413374 
L 250.799179 87.674422 
z
" clip-path="url(#p5add0824ff)" style="fill: #f6f6f6"/>
    <path d="M 143.532401 410.105456 
L 161.669581 431.536022 
L 181.913585 447.825899 
z
" clip-path="url(#p5add0824ff)" style="fill: #393939"/>
    <path d="M 101.413609 311.651919 
L 104.270305 332.682846 
L 116.033124 363.597875 
z
" clip-path="url(#p5add0824ff)" style="fill: #6d6d6d"/>
    <path d="M 490.106718 217.258613 
L 501.856396 257.366536 
L 498.589154 236.97546 
z
" clip-path="url(#p5add0824ff)" style="fill: #a3a3a3"/>
    <path d="M 176.440705 124.120644 
L 139.72437 160.886388 
L 175.069755 131.653604 
z
" clip-path="url(#p5add0824ff)" style="fill: #d9d9d9"/>
    <path d="M 143.532401 410.105456 
L 116.033124 363.597875 
L 124.070609 383.477404 
z
" clip-path="url(#p5add0824ff)" style="fill: #525252"/>
    <path d="M 340.600895 85.975128 
L 305.562944 81.413374 
L 286.120066 84.557256 
z
" clip-path="url(#p5add0824ff)" style="fill: #f7f7f7"/>
    <path d="M 101.413609 311.651919 
L 100.688478 258.023905 
L 97.748891 291.553719 
z
" clip-path="url(#p5add0824ff)" style="fill: #898989"/>
    <path d="M 371.984409 471.560955 
L 420.473442 447.825899 
L 381.302077 471.549615 
z
" clip-path="url(#p5add0824ff)" style="fill: #292929"/>
    <path d="M 176.440705 124.120644 
L 175.069755 131.653604 
L 202.099728 107.976243 
z
" clip-path="url(#p5add0824ff)" style="fill: #e4e4e4"/>
    <path d="M 490.106718 217.258613 
L 478.630151 186.120937 
L 460.579552 164.658376 
z
" clip-path="url(#p5add0824ff)" style="fill: #bfbfbf"/>
    <path d="M 331.706219 486.211642 
L 279.515359 487.146426 
L 311.533362 480.815543 
z
" clip-path="url(#p5add0824ff)" style="fill: #1e1e1e"/>
    <path d="M 504.304599 298.256527 
L 497.965198 318.28398 
L 492.701648 351.978978 
z
" clip-path="url(#p5add0824ff)" style="fill: #777777"/>
    <path d="M 417.083333 122.417792 
L 397.330625 105.492194 
L 380.499036 99.848765 
z
" clip-path="url(#p5add0824ff)" style="fill: #ebebeb"/>
    <path d="M 417.083333 122.417792 
L 460.579552 164.658376 
L 441.302882 137.621616 
z
" clip-path="url(#p5add0824ff)" style="fill: #dadada"/>
    <path d="M 232.219146 98.456449 
L 250.799179 87.674422 
L 202.099728 107.976243 
z
" clip-path="url(#p5add0824ff)" style="fill: #f2f2f2"/>
    <path d="M 113.815346 206.561114 
L 140.614944 174.115023 
L 139.72437 160.886388 
z
" clip-path="url(#p5add0824ff)" style="fill: #c6c6c6"/>
    <path d="M 466.456698 401.048111 
L 448.32344 425.668312 
L 440.458173 423.483394 
z
" clip-path="url(#p5add0824ff)" style="fill: #454545"/>
    <path d="M 440.458173 423.483394 
L 448.32344 425.668312 
L 420.473442 447.825899 
z
" clip-path="url(#p5add0824ff)" style="fill: #3d3d3d"/>
    <path d="M 232.219146 98.456449 
L 286.120066 84.557256 
L 250.799179 87.674422 
z
" clip-path="url(#p5add0824ff)" style="fill: #f7f7f7"/>
    <path d="M 504.304599 298.256527 
L 501.856396 257.366536 
L 496.026088 281.060563 
z
" clip-path="url(#p5add0824ff)" style="fill: #919191"/>
    <path d="M 331.706219 486.211642 
L 311.533362 480.815543 
L 371.984409 471.560955 
z
" clip-path="url(#p5add0824ff)" style="fill: #252525"/>
    <path d="M 466.456698 401.048111 
L 492.701648 351.978978 
L 478.444675 371.311938 
z
" clip-path="url(#p5add0824ff)" style="fill: #5e5e5e"/>
    <path d="M 228.366595 474.09637 
L 256.834429 472.616387 
L 279.515359 487.146426 
z
" clip-path="url(#p5add0824ff)" style="fill: #262626"/>
    <path d="M 228.366595 474.09637 
L 214.296019 460.710076 
L 181.913585 447.825899 
z
" clip-path="url(#p5add0824ff)" style="fill: #303030"/>
    <path d="M 504.304599 298.256527 
L 496.026088 281.060563 
L 497.965198 318.28398 
z
" clip-path="url(#p5add0824ff)" style="fill: #888888"/>
    <path d="M 340.600895 85.975128 
L 286.120066 84.557256 
L 321.579449 89.719029 
z
" clip-path="url(#p5add0824ff)" style="fill: #fbfbfb"/>
    <path d="M 113.815346 206.561114 
L 100.688478 258.023905 
L 117.445297 231.842945 
z
" clip-path="url(#p5add0824ff)" style="fill: #adadad"/>
    <path d="M 492.701648 351.978978 
L 497.965198 318.28398 
L 478.444675 371.311938 
z
" clip-path="url(#p5add0824ff)" style="fill: #6e6e6e"/>
    <path d="M 140.614944 174.115023 
L 175.069755 131.653604 
L 139.72437 160.886388 
z
" clip-path="url(#p5add0824ff)" style="fill: #d6d6d6"/>
    <path d="M 143.532401 410.105456 
L 181.913585 447.825899 
L 170.00677 428.162156 
z
" clip-path="url(#p5add0824ff)" style="fill: #434343"/>
    <path d="M 340.600895 85.975128 
L 358.297878 102.433775 
L 380.499036 99.848765 
z
" clip-path="url(#p5add0824ff)" style="fill: #f7f7f7"/>
    <path d="M 101.413609 311.651919 
L 116.033124 363.597875 
L 113.117608 331.260873 
z
" clip-path="url(#p5add0824ff)" style="fill: #767676"/>
    <path d="M 143.532401 410.105456 
L 134.287464 382.490007 
L 116.033124 363.597875 
z
" clip-path="url(#p5add0824ff)" style="fill: #5c5c5c"/>
    <path d="M 101.413609 311.651919 
L 112.591188 287.871791 
L 100.688478 258.023905 
z
" clip-path="url(#p5add0824ff)" style="fill: #929292"/>
    <path d="M 490.106718 217.258613 
L 485.556399 238.923306 
L 501.856396 257.366536 
z
" clip-path="url(#p5add0824ff)" style="fill: #acacac"/>
    <path d="M 311.533362 480.815543 
L 279.515359 487.146426 
L 256.834429 472.616387 
z
" clip-path="url(#p5add0824ff)" style="fill: #292929"/>
    <path d="M 232.219146 98.456449 
L 202.099728 107.976243 
L 205.449973 120.322881 
z
" clip-path="url(#p5add0824ff)" style="fill: #f2f2f2"/>
    <path d="M 205.449973 120.322881 
L 202.099728 107.976243 
L 175.069755 131.653604 
z
" clip-path="url(#p5add0824ff)" style="fill: #ececec"/>
    <path d="M 228.366595 474.09637 
L 214.296019 460.710076 
L 256.834429 472.616387 
z
" clip-path="url(#p5add0824ff)" style="fill: #303030"/>
    <path d="M 170.00677 428.162156 
L 181.913585 447.825899 
L 214.296019 460.710076 
z
" clip-path="url(#p5add0824ff)" style="fill: #3d3d3d"/>
    <path d="M 340.600895 85.975128 
L 321.579449 89.719029 
L 358.297878 102.433775 
z
" clip-path="url(#p5add0824ff)" style="fill: #fbfbfb"/>
    <path d="M 113.815346 206.561114 
L 117.445297 231.842945 
L 140.614944 174.115023 
z
" clip-path="url(#p5add0824ff)" style="fill: #bfbfbf"/>
    <path d="M 407.343847 439.88699 
L 420.473442 447.825899 
L 371.984409 471.560955 
z
" clip-path="url(#p5add0824ff)" style="fill: #393939"/>
    <path d="M 232.219146 98.456449 
L 265.692657 96.163413 
L 286.120066 84.557256 
z
" clip-path="url(#p5add0824ff)" style="fill: #fbfbfb"/>
    <path d="M 417.083333 122.417792 
L 380.499036 99.848765 
L 397.250277 124.312708 
z
" clip-path="url(#p5add0824ff)" style="fill: #f0f0f0"/>
    <path d="M 496.026088 281.060563 
L 501.856396 257.366536 
L 485.556399 238.923306 
z
" clip-path="url(#p5add0824ff)" style="fill: #a3a3a3"/>
    <path d="M 286.120066 84.557256 
L 265.692657 96.163413 
L 321.579449 89.719029 
z
" clip-path="url(#p5add0824ff)" style="fill: #fefefe"/>
    <path d="M 143.532401 410.105456 
L 170.00677 428.162156 
L 134.287464 382.490007 
z
" clip-path="url(#p5add0824ff)" style="fill: #535353"/>
    <path d="M 490.106718 217.258613 
L 460.579552 164.658376 
L 467.872715 201.546886 
z
" clip-path="url(#p5add0824ff)" style="fill: #c6c6c6"/>
    <path d="M 466.456698 401.048111 
L 455.750392 390.098401 
L 478.444675 371.311938 
z
" clip-path="url(#p5add0824ff)" style="fill: #5e5e5e"/>
    <path d="M 134.287464 382.490007 
L 113.117608 331.260873 
L 116.033124 363.597875 
z
" clip-path="url(#p5add0824ff)" style="fill: #6d6d6d"/>
    <path d="M 407.343847 439.88699 
L 440.458173 423.483394 
L 420.473442 447.825899 
z
" clip-path="url(#p5add0824ff)" style="fill: #434343"/>
    <path d="M 466.456698 401.048111 
L 440.458173 423.483394 
L 455.750392 390.098401 
z
" clip-path="url(#p5add0824ff)" style="fill: #555555"/>
    <path d="M 483.598096 337.542154 
L 478.444675 371.311938 
L 497.965198 318.28398 
z
" clip-path="url(#p5add0824ff)" style="fill: #777777"/>
    <path d="M 417.083333 122.417792 
L 429.354606 151.537044 
L 460.579552 164.658376 
z
" clip-path="url(#p5add0824ff)" style="fill: #e1e1e1"/>
    <path d="M 101.413609 311.651919 
L 113.117608 331.260873 
L 112.591188 287.871791 
z
" clip-path="url(#p5add0824ff)" style="fill: #898989"/>
    <path d="M 117.445297 231.842945 
L 100.688478 258.023905 
L 112.591188 287.871791 
z
" clip-path="url(#p5add0824ff)" style="fill: #a4a4a4"/>
    <path d="M 358.297878 102.433775 
L 397.250277 124.312708 
L 380.499036 99.848765 
z
" clip-path="url(#p5add0824ff)" style="fill: #f6f6f6"/>
    <path d="M 490.106718 217.258613 
L 467.872715 201.546886 
L 485.556399 238.923306 
z
" clip-path="url(#p5add0824ff)" style="fill: #bcbcbc"/>
    <path d="M 350.985653 456.33953 
L 371.984409 471.560955 
L 311.533362 480.815543 
z
" clip-path="url(#p5add0824ff)" style="fill: #363636"/>
    <path d="M 496.026088 281.060563 
L 481.506683 301.071896 
L 497.965198 318.28398 
z
" clip-path="url(#p5add0824ff)" style="fill: #919191"/>
    <path d="M 182.644094 150.454456 
L 175.069755 131.653604 
L 140.614944 174.115023 
z
" clip-path="url(#p5add0824ff)" style="fill: #e1e1e1"/>
    <path d="M 203.30898 439.883154 
L 170.00677 428.162156 
L 214.296019 460.710076 
z
" clip-path="url(#p5add0824ff)" style="fill: #454545"/>
    <path d="M 417.083333 122.417792 
L 397.250277 124.312708 
L 429.354606 151.537044 
z
" clip-path="url(#p5add0824ff)" style="fill: #ebebeb"/>
    <path d="M 483.598096 337.542154 
L 497.965198 318.28398 
L 481.506683 301.071896 
z
" clip-path="url(#p5add0824ff)" style="fill: #888888"/>
    <path d="M 460.579552 164.658376 
L 429.354606 151.537044 
L 467.872715 201.546886 
z
" clip-path="url(#p5add0824ff)" style="fill: #d6d6d6"/>
    <path d="M 232.219146 98.456449 
L 243.45083 115.866403 
L 265.692657 96.163413 
z
" clip-path="url(#p5add0824ff)" style="fill: #fbfbfb"/>
    <path d="M 301.193514 101.402075 
L 321.579449 89.719029 
L 265.692657 96.163413 
z
" clip-path="url(#p5add0824ff)" style="fill: #ffffff"/>
    <path d="M 232.219146 98.456449 
L 205.449973 120.322881 
L 243.45083 115.866403 
z
" clip-path="url(#p5add0824ff)" style="fill: #f7f7f7"/>
    <path d="M 182.644094 150.454456 
L 205.449973 120.322881 
L 175.069755 131.653604 
z
" clip-path="url(#p5add0824ff)" style="fill: #ebebeb"/>
    <path d="M 407.343847 439.88699 
L 371.984409 471.560955 
L 350.985653 456.33953 
z
" clip-path="url(#p5add0824ff)" style="fill: #404040"/>
    <path d="M 244.919928 452.697524 
L 256.834429 472.616387 
L 214.296019 460.710076 
z
" clip-path="url(#p5add0824ff)" style="fill: #3d3d3d"/>
    <path d="M 162.640702 399.217838 
L 134.287464 382.490007 
L 170.00677 428.162156 
z
" clip-path="url(#p5add0824ff)" style="fill: #5c5c5c"/>
    <path d="M 132.701036 349.530899 
L 113.117608 331.260873 
L 134.287464 382.490007 
z
" clip-path="url(#p5add0824ff)" style="fill: #767676"/>
    <path d="M 289.517596 457.622674 
L 311.533362 480.815543 
L 256.834429 472.616387 
z
" clip-path="url(#p5add0824ff)" style="fill: #393939"/>
    <path d="M 483.598096 337.542154 
L 478.444675 371.311938 
L 461.491423 355.175233 
z
" clip-path="url(#p5add0824ff)" style="fill: #777777"/>
    <path d="M 358.297878 102.433775 
L 321.579449 89.719029 
L 337.22797 114.131294 
z
" clip-path="url(#p5add0824ff)" style="fill: #fefefe"/>
    <path d="M 455.750392 390.098401 
L 461.491423 355.175233 
L 478.444675 371.311938 
z
" clip-path="url(#p5add0824ff)" style="fill: #6e6e6e"/>
    <path d="M 407.343847 439.88699 
L 422.597783 408.40783 
L 440.458173 423.483394 
z
" clip-path="url(#p5add0824ff)" style="fill: #535353"/>
    <path d="M 472.09132 263.432245 
L 496.026088 281.060563 
L 485.556399 238.923306 
z
" clip-path="url(#p5add0824ff)" style="fill: #aaaaaa"/>
    <path d="M 455.750392 390.098401 
L 440.458173 423.483394 
L 422.597783 408.40783 
z
" clip-path="url(#p5add0824ff)" style="fill: #5c5c5c"/>
    <path d="M 140.614944 174.115023 
L 117.445297 231.842945 
L 153.702177 202.789221 
z
" clip-path="url(#p5add0824ff)" style="fill: #c9c9c9"/>
    <path d="M 203.30898 439.883154 
L 244.919928 452.697524 
L 214.296019 460.710076 
z
" clip-path="url(#p5add0824ff)" style="fill: #454545"/>
    <path d="M 203.30898 439.883154 
L 162.640702 399.217838 
L 170.00677 428.162156 
z
" clip-path="url(#p5add0824ff)" style="fill: #555555"/>
    <path d="M 301.193514 101.402075 
L 337.22797 114.131294 
L 321.579449 89.719029 
z
" clip-path="url(#p5add0824ff)" style="fill: #ffffff"/>
    <path d="M 131.180302 307.004437 
L 112.591188 287.871791 
L 113.117608 331.260873 
z
" clip-path="url(#p5add0824ff)" style="fill: #929292"/>
    <path d="M 132.701036 349.530899 
L 134.287464 382.490007 
L 162.640702 399.217838 
z
" clip-path="url(#p5add0824ff)" style="fill: #6e6e6e"/>
    <path d="M 289.517596 457.622674 
L 350.985653 456.33953 
L 311.533362 480.815543 
z
" clip-path="url(#p5add0824ff)" style="fill: #404040"/>
    <path d="M 472.09132 263.432245 
L 481.506683 301.071896 
L 496.026088 281.060563 
z
" clip-path="url(#p5add0824ff)" style="fill: #a1a1a1"/>
    <path d="M 137.773072 262.992299 
L 117.445297 231.842945 
L 112.591188 287.871791 
z
" clip-path="url(#p5add0824ff)" style="fill: #adadad"/>
    <path d="M 132.701036 349.530899 
L 131.180302 307.004437 
L 113.117608 331.260873 
z
" clip-path="url(#p5add0824ff)" style="fill: #898989"/>
    <path d="M 372.211086 133.935907 
L 397.250277 124.312708 
L 358.297878 102.433775 
z
" clip-path="url(#p5add0824ff)" style="fill: #f7f7f7"/>
    <path d="M 182.644094 150.454456 
L 140.614944 174.115023 
L 153.702177 202.789221 
z
" clip-path="url(#p5add0824ff)" style="fill: #dadada"/>
    <path d="M 483.598096 337.542154 
L 481.506683 301.071896 
L 461.491423 355.175233 
z
" clip-path="url(#p5add0824ff)" style="fill: #888888"/>
    <path d="M 289.517596 457.622674 
L 256.834429 472.616387 
L 244.919928 452.697524 
z
" clip-path="url(#p5add0824ff)" style="fill: #434343"/>
    <path d="M 485.556399 238.923306 
L 467.872715 201.546886 
L 455.636333 226.274895 
z
" clip-path="url(#p5add0824ff)" style="fill: #c2c2c2"/>
    <path d="M 301.193514 101.402075 
L 265.692657 96.163413 
L 280.27392 120.843776 
z
" clip-path="url(#p5add0824ff)" style="fill: #ffffff"/>
    <path d="M 243.45083 115.866403 
L 280.27392 120.843776 
L 265.692657 96.163413 
z
" clip-path="url(#p5add0824ff)" style="fill: #fefefe"/>
    <path d="M 397.250277 124.312708 
L 404.559818 160.027162 
L 429.354606 151.537044 
z
" clip-path="url(#p5add0824ff)" style="fill: #ececec"/>
    <path d="M 432.794383 191.275516 
L 467.872715 201.546886 
L 429.354606 151.537044 
z
" clip-path="url(#p5add0824ff)" style="fill: #d9d9d9"/>
    <path d="M 372.211086 133.935907 
L 358.297878 102.433775 
L 337.22797 114.131294 
z
" clip-path="url(#p5add0824ff)" style="fill: #fbfbfb"/>
    <path d="M 182.644094 150.454456 
L 218.859603 145.638194 
L 205.449973 120.322881 
z
" clip-path="url(#p5add0824ff)" style="fill: #f0f0f0"/>
    <path d="M 243.45083 115.866403 
L 205.449973 120.322881 
L 218.859603 145.638194 
z
" clip-path="url(#p5add0824ff)" style="fill: #f6f6f6"/>
    <path d="M 472.09132 263.432245 
L 485.556399 238.923306 
L 455.636333 226.274895 
z
" clip-path="url(#p5add0824ff)" style="fill: #bababa"/>
    <path d="M 407.343847 439.88699 
L 350.985653 456.33953 
L 386.00728 420.425349 
z
" clip-path="url(#p5add0824ff)" style="fill: #525252"/>
    <path d="M 137.773072 262.992299 
L 153.702177 202.789221 
L 117.445297 231.842945 
z
" clip-path="url(#p5add0824ff)" style="fill: #bfbfbf"/>
    <path d="M 203.30898 439.883154 
L 196.011067 412.215279 
L 162.640702 399.217838 
z
" clip-path="url(#p5add0824ff)" style="fill: #5e5e5e"/>
    <path d="M 137.773072 262.992299 
L 112.591188 287.871791 
L 131.180302 307.004437 
z
" clip-path="url(#p5add0824ff)" style="fill: #a3a3a3"/>
    <path d="M 407.343847 439.88699 
L 386.00728 420.425349 
L 422.597783 408.40783 
z
" clip-path="url(#p5add0824ff)" style="fill: #5c5c5c"/>
    <path d="M 301.193514 101.402075 
L 280.27392 120.843776 
L 337.22797 114.131294 
z
" clip-path="url(#p5add0824ff)" style="fill: #ffffff"/>
    <path d="M 132.701036 349.530899 
L 162.640702 399.217838 
L 159.607404 365.610494 
z
" clip-path="url(#p5add0824ff)" style="fill: #777777"/>
    <path d="M 432.339591 370.342934 
L 461.491423 355.175233 
L 455.750392 390.098401 
z
" clip-path="url(#p5add0824ff)" style="fill: #777777"/>
    <path d="M 432.339591 370.342934 
L 455.750392 390.098401 
L 422.597783 408.40783 
z
" clip-path="url(#p5add0824ff)" style="fill: #6e6e6e"/>
    <path d="M 372.211086 133.935907 
L 404.559818 160.027162 
L 397.250277 124.312708 
z
" clip-path="url(#p5add0824ff)" style="fill: #f2f2f2"/>
    <path d="M 458.505116 317.963395 
L 461.491423 355.175233 
L 481.506683 301.071896 
z
" clip-path="url(#p5add0824ff)" style="fill: #919191"/>
    <path d="M 203.30898 439.883154 
L 234.786926 422.43589 
L 244.919928 452.697524 
z
" clip-path="url(#p5add0824ff)" style="fill: #555555"/>
    <path d="M 432.794383 191.275516 
L 455.636333 226.274895 
L 467.872715 201.546886 
z
" clip-path="url(#p5add0824ff)" style="fill: #cfcfcf"/>
    <path d="M 472.09132 263.432245 
L 458.505116 317.963395 
L 481.506683 301.071896 
z
" clip-path="url(#p5add0824ff)" style="fill: #a1a1a1"/>
    <path d="M 432.794383 191.275516 
L 429.354606 151.537044 
L 404.559818 160.027162 
z
" clip-path="url(#p5add0824ff)" style="fill: #e4e4e4"/>
    <path d="M 162.640702 399.217838 
L 196.011067 412.215279 
L 159.607404 365.610494 
z
" clip-path="url(#p5add0824ff)" style="fill: #6e6e6e"/>
    <path d="M 203.30898 439.883154 
L 196.011067 412.215279 
L 234.786926 422.43589 
z
" clip-path="url(#p5add0824ff)" style="fill: #5e5e5e"/>
    <path d="M 132.701036 349.530899 
L 160.155832 326.796773 
L 131.180302 307.004437 
z
" clip-path="url(#p5add0824ff)" style="fill: #919191"/>
    <path d="M 289.517596 457.622674 
L 324.056693 429.613319 
L 350.985653 456.33953 
z
" clip-path="url(#p5add0824ff)" style="fill: #525252"/>
    <path d="M 289.517596 457.622674 
L 244.919928 452.697524 
L 280.685933 429.363351 
z
" clip-path="url(#p5add0824ff)" style="fill: #535353"/>
    <path d="M 182.644094 150.454456 
L 153.702177 202.789221 
L 199.129955 179.759843 
z
" clip-path="url(#p5add0824ff)" style="fill: #e1e1e1"/>
    <path d="M 132.701036 349.530899 
L 159.607404 365.610494 
L 160.155832 326.796773 
z
" clip-path="url(#p5add0824ff)" style="fill: #888888"/>
    <path d="M 372.211086 133.935907 
L 337.22797 114.131294 
L 316.905535 134.708536 
z
" clip-path="url(#p5add0824ff)" style="fill: #fbfbfb"/>
    <path d="M 432.339591 370.342934 
L 461.491423 355.175233 
L 458.505116 317.963395 
z
" clip-path="url(#p5add0824ff)" style="fill: #888888"/>
    <path d="M 316.905535 134.708536 
L 337.22797 114.131294 
L 280.27392 120.843776 
z
" clip-path="url(#p5add0824ff)" style="fill: #fefefe"/>
    <path d="M 259.742055 147.453548 
L 280.27392 120.843776 
L 243.45083 115.866403 
z
" clip-path="url(#p5add0824ff)" style="fill: #fbfbfb"/>
    <path d="M 182.644094 150.454456 
L 199.129955 179.759843 
L 218.859603 145.638194 
z
" clip-path="url(#p5add0824ff)" style="fill: #ebebeb"/>
    <path d="M 350.985653 456.33953 
L 324.056693 429.613319 
L 386.00728 420.425349 
z
" clip-path="url(#p5add0824ff)" style="fill: #5b5b5b"/>
    <path d="M 259.742055 147.453548 
L 243.45083 115.866403 
L 218.859603 145.638194 
z
" clip-path="url(#p5add0824ff)" style="fill: #f7f7f7"/>
    <path d="M 472.09132 263.432245 
L 455.636333 226.274895 
L 445.547912 276.788966 
z
" clip-path="url(#p5add0824ff)" style="fill: #bababa"/>
    <path d="M 472.09132 263.432245 
L 445.547912 276.788966 
L 458.505116 317.963395 
z
" clip-path="url(#p5add0824ff)" style="fill: #aaaaaa"/>
    <path d="M 234.786926 422.43589 
L 280.685933 429.363351 
L 244.919928 452.697524 
z
" clip-path="url(#p5add0824ff)" style="fill: #5c5c5c"/>
    <path d="M 137.773072 262.992299 
L 131.180302 307.004437 
L 165.196986 281.172011 
z
" clip-path="url(#p5add0824ff)" style="fill: #acacac"/>
    <path d="M 422.597783 408.40783 
L 386.00728 420.425349 
L 397.250035 382.278165 
z
" clip-path="url(#p5add0824ff)" style="fill: #6d6d6d"/>
    <path d="M 192.865377 378.701404 
L 159.607404 365.610494 
L 196.011067 412.215279 
z
" clip-path="url(#p5add0824ff)" style="fill: #777777"/>
    <path d="M 137.773072 262.992299 
L 175.668231 238.941044 
L 153.702177 202.789221 
z
" clip-path="url(#p5add0824ff)" style="fill: #c6c6c6"/>
    <path d="M 432.339591 370.342934 
L 422.597783 408.40783 
L 397.250035 382.278165 
z
" clip-path="url(#p5add0824ff)" style="fill: #767676"/>
    <path d="M 289.517596 457.622674 
L 280.685933 429.363351 
L 324.056693 429.613319 
z
" clip-path="url(#p5add0824ff)" style="fill: #5c5c5c"/>
    <path d="M 372.211086 133.935907 
L 354.617754 159.037351 
L 404.559818 160.027162 
z
" clip-path="url(#p5add0824ff)" style="fill: #f2f2f2"/>
    <path d="M 432.794383 191.275516 
L 426.718796 238.941044 
L 455.636333 226.274895 
z
" clip-path="url(#p5add0824ff)" style="fill: #cfcfcf"/>
    <path d="M 259.742055 147.453548 
L 316.905535 134.708536 
L 280.27392 120.843776 
z
" clip-path="url(#p5add0824ff)" style="fill: #fbfbfb"/>
    <path d="M 160.155832 326.796773 
L 165.196986 281.172011 
L 131.180302 307.004437 
z
" clip-path="url(#p5add0824ff)" style="fill: #a3a3a3"/>
    <path d="M 432.794383 191.275516 
L 404.559818 160.027162 
L 387.039084 187.539791 
z
" clip-path="url(#p5add0824ff)" style="fill: #e4e4e4"/>
    <path d="M 372.211086 133.935907 
L 316.905535 134.708536 
L 354.617754 159.037351 
z
" clip-path="url(#p5add0824ff)" style="fill: #f7f7f7"/>
    <path d="M 153.702177 202.789221 
L 175.668231 238.941044 
L 199.129955 179.759843 
z
" clip-path="url(#p5add0824ff)" style="fill: #d6d6d6"/>
    <path d="M 432.339591 370.342934 
L 458.505116 317.963395 
L 424.898155 332.067986 
z
" clip-path="url(#p5add0824ff)" style="fill: #919191"/>
    <path d="M 234.786926 422.43589 
L 196.011067 412.215279 
L 231.107861 388.119323 
z
" clip-path="url(#p5add0824ff)" style="fill: #6e6e6e"/>
    <path d="M 445.547912 276.788966 
L 455.636333 226.274895 
L 426.718796 238.941044 
z
" clip-path="url(#p5add0824ff)" style="fill: #c2c2c2"/>
    <path d="M 458.505116 317.963395 
L 445.547912 276.788966 
L 424.898155 332.067986 
z
" clip-path="url(#p5add0824ff)" style="fill: #a3a3a3"/>
    <path d="M 137.773072 262.992299 
L 165.196986 281.172011 
L 175.668231 238.941044 
z
" clip-path="url(#p5add0824ff)" style="fill: #bcbcbc"/>
    <path d="M 192.865377 378.701404 
L 231.107861 388.119323 
L 196.011067 412.215279 
z
" clip-path="url(#p5add0824ff)" style="fill: #777777"/>
    <path d="M 160.155832 326.796773 
L 159.607404 365.610494 
L 194.142606 340.713436 
z
" clip-path="url(#p5add0824ff)" style="fill: #919191"/>
    <path d="M 218.859603 145.638194 
L 199.129955 179.759843 
L 240.55803 180.219224 
z
" clip-path="url(#p5add0824ff)" style="fill: #ececec"/>
    <path d="M 192.865377 378.701404 
L 194.142606 340.713436 
L 159.607404 365.610494 
z
" clip-path="url(#p5add0824ff)" style="fill: #888888"/>
    <path d="M 354.617754 159.037351 
L 387.039084 187.539791 
L 404.559818 160.027162 
z
" clip-path="url(#p5add0824ff)" style="fill: #ececec"/>
    <path d="M 259.742055 147.453548 
L 218.859603 145.638194 
L 240.55803 180.219224 
z
" clip-path="url(#p5add0824ff)" style="fill: #f2f2f2"/>
    <path d="M 357.710163 390.34799 
L 386.00728 420.425349 
L 324.056693 429.613319 
z
" clip-path="url(#p5add0824ff)" style="fill: #6d6d6d"/>
    <path d="M 432.794383 191.275516 
L 387.039084 187.539791 
L 426.718796 238.941044 
z
" clip-path="url(#p5add0824ff)" style="fill: #d9d9d9"/>
    <path d="M 432.339591 370.342934 
L 424.898155 332.067986 
L 397.250035 382.278165 
z
" clip-path="url(#p5add0824ff)" style="fill: #898989"/>
    <path d="M 357.710163 390.34799 
L 397.250035 382.278165 
L 386.00728 420.425349 
z
" clip-path="url(#p5add0824ff)" style="fill: #767676"/>
    <path d="M 259.742055 147.453548 
L 296.510484 166.151216 
L 316.905535 134.708536 
z
" clip-path="url(#p5add0824ff)" style="fill: #f7f7f7"/>
    <path d="M 272.63386 393.352541 
L 280.685933 429.363351 
L 234.786926 422.43589 
z
" clip-path="url(#p5add0824ff)" style="fill: #6e6e6e"/>
    <path d="M 316.905535 134.708536 
L 296.510484 166.151216 
L 354.617754 159.037351 
z
" clip-path="url(#p5add0824ff)" style="fill: #f6f6f6"/>
    <path d="M 280.685933 429.363351 
L 315.511239 394.109624 
L 324.056693 429.613319 
z
" clip-path="url(#p5add0824ff)" style="fill: #6d6d6d"/>
    <path d="M 272.63386 393.352541 
L 234.786926 422.43589 
L 231.107861 388.119323 
z
" clip-path="url(#p5add0824ff)" style="fill: #777777"/>
    <path d="M 411.300861 290.873085 
L 445.547912 276.788966 
L 426.718796 238.941044 
z
" clip-path="url(#p5add0824ff)" style="fill: #bcbcbc"/>
    <path d="M 199.882211 299.939975 
L 165.196986 281.172011 
L 160.155832 326.796773 
z
" clip-path="url(#p5add0824ff)" style="fill: #aaaaaa"/>
    <path d="M 411.300861 290.873085 
L 424.898155 332.067986 
L 445.547912 276.788966 
z
" clip-path="url(#p5add0824ff)" style="fill: #acacac"/>
    <path d="M 192.865377 378.701404 
L 231.107861 388.119323 
L 194.142606 340.713436 
z
" clip-path="url(#p5add0824ff)" style="fill: #888888"/>
    <path d="M 223.655809 217.736865 
L 199.129955 179.759843 
L 175.668231 238.941044 
z
" clip-path="url(#p5add0824ff)" style="fill: #d9d9d9"/>
    <path d="M 259.742055 147.453548 
L 240.55803 180.219224 
L 296.510484 166.151216 
z
" clip-path="url(#p5add0824ff)" style="fill: #f2f2f2"/>
    <path d="M 357.710163 390.34799 
L 324.056693 429.613319 
L 315.511239 394.109624 
z
" clip-path="url(#p5add0824ff)" style="fill: #767676"/>
    <path d="M 424.898155 332.067986 
L 387.646308 342.798878 
L 397.250035 382.278165 
z
" clip-path="url(#p5add0824ff)" style="fill: #929292"/>
    <path d="M 199.882211 299.939975 
L 160.155832 326.796773 
L 194.142606 340.713436 
z
" clip-path="url(#p5add0824ff)" style="fill: #a1a1a1"/>
    <path d="M 223.655809 217.736865 
L 240.55803 180.219224 
L 199.129955 179.759843 
z
" clip-path="url(#p5add0824ff)" style="fill: #e4e4e4"/>
    <path d="M 272.63386 393.352541 
L 315.511239 394.109624 
L 280.685933 429.363351 
z
" clip-path="url(#p5add0824ff)" style="fill: #767676"/>
    <path d="M 165.196986 281.172011 
L 209.872594 258.285256 
L 175.668231 238.941044 
z
" clip-path="url(#p5add0824ff)" style="fill: #c2c2c2"/>
    <path d="M 333.986785 190.900136 
L 387.039084 187.539791 
L 354.617754 159.037351 
z
" clip-path="url(#p5add0824ff)" style="fill: #ebebeb"/>
    <path d="M 357.710163 390.34799 
L 397.250035 382.278165 
L 387.646308 342.798878 
z
" clip-path="url(#p5add0824ff)" style="fill: #898989"/>
    <path d="M 333.986785 190.900136 
L 354.617754 159.037351 
L 296.510484 166.151216 
z
" clip-path="url(#p5add0824ff)" style="fill: #f0f0f0"/>
    <path d="M 376.138766 238.831082 
L 426.718796 238.941044 
L 387.039084 187.539791 
z
" clip-path="url(#p5add0824ff)" style="fill: #d6d6d6"/>
    <path d="M 411.300861 290.873085 
L 387.646308 342.798878 
L 424.898155 332.067986 
z
" clip-path="url(#p5add0824ff)" style="fill: #a3a3a3"/>
    <path d="M 233.577171 349.295231 
L 194.142606 340.713436 
L 231.107861 388.119323 
z
" clip-path="url(#p5add0824ff)" style="fill: #919191"/>
    <path d="M 199.882211 299.939975 
L 209.872594 258.285256 
L 165.196986 281.172011 
z
" clip-path="url(#p5add0824ff)" style="fill: #bababa"/>
    <path d="M 411.300861 290.873085 
L 426.718796 238.941044 
L 376.138766 238.831082 
z
" clip-path="url(#p5add0824ff)" style="fill: #c6c6c6"/>
    <path d="M 223.655809 217.736865 
L 175.668231 238.941044 
L 209.872594 258.285256 
z
" clip-path="url(#p5add0824ff)" style="fill: #cfcfcf"/>
    <path d="M 272.63386 393.352541 
L 233.577171 349.295231 
L 231.107861 388.119323 
z
" clip-path="url(#p5add0824ff)" style="fill: #888888"/>
    <path d="M 296.510484 166.151216 
L 240.55803 180.219224 
L 277.946338 201.241378 
z
" clip-path="url(#p5add0824ff)" style="fill: #ececec"/>
    <path d="M 333.986785 190.900136 
L 376.138766 238.831082 
L 387.039084 187.539791 
z
" clip-path="url(#p5add0824ff)" style="fill: #e1e1e1"/>
    <path d="M 199.882211 299.939975 
L 194.142606 340.713436 
L 233.577171 349.295231 
z
" clip-path="url(#p5add0824ff)" style="fill: #a1a1a1"/>
    <path d="M 223.655809 217.736865 
L 277.946338 201.241378 
L 240.55803 180.219224 
z
" clip-path="url(#p5add0824ff)" style="fill: #e4e4e4"/>
    <path d="M 357.710163 390.34799 
L 324.501248 351.687046 
L 315.511239 394.109624 
z
" clip-path="url(#p5add0824ff)" style="fill: #898989"/>
    <path d="M 333.986785 190.900136 
L 296.510484 166.151216 
L 277.946338 201.241378 
z
" clip-path="url(#p5add0824ff)" style="fill: #ebebeb"/>
    <path d="M 357.710163 390.34799 
L 387.646308 342.798878 
L 324.501248 351.687046 
z
" clip-path="url(#p5add0824ff)" style="fill: #929292"/>
    <path d="M 272.63386 393.352541 
L 315.511239 394.109624 
L 280.29185 352.344734 
z
" clip-path="url(#p5add0824ff)" style="fill: #898989"/>
    <path d="M 272.63386 393.352541 
L 280.29185 352.344734 
L 233.577171 349.295231 
z
" clip-path="url(#p5add0824ff)" style="fill: #919191"/>
    <path d="M 411.300861 290.873085 
L 352.943258 299.825351 
L 387.646308 342.798878 
z
" clip-path="url(#p5add0824ff)" style="fill: #adadad"/>
    <path d="M 199.882211 299.939975 
L 242.822356 304.172766 
L 209.872594 258.285256 
z
" clip-path="url(#p5add0824ff)" style="fill: #bababa"/>
    <path d="M 199.882211 299.939975 
L 233.577171 349.295231 
L 242.822356 304.172766 
z
" clip-path="url(#p5add0824ff)" style="fill: #aaaaaa"/>
    <path d="M 411.300861 290.873085 
L 376.138766 238.831082 
L 352.943258 299.825351 
z
" clip-path="url(#p5add0824ff)" style="fill: #bfbfbf"/>
    <path d="M 223.655809 217.736865 
L 209.872594 258.285256 
L 254.472641 261.52605 
z
" clip-path="url(#p5add0824ff)" style="fill: #cfcfcf"/>
    <path d="M 280.29185 352.344734 
L 315.511239 394.109624 
L 324.501248 351.687046 
z
" clip-path="url(#p5add0824ff)" style="fill: #929292"/>
    <path d="M 223.655809 217.736865 
L 254.472641 261.52605 
L 277.946338 201.241378 
z
" clip-path="url(#p5add0824ff)" style="fill: #d9d9d9"/>
    <path d="M 333.986785 190.900136 
L 312.143941 247.180051 
L 376.138766 238.831082 
z
" clip-path="url(#p5add0824ff)" style="fill: #dadada"/>
    <path d="M 333.986785 190.900136 
L 277.946338 201.241378 
L 312.143941 247.180051 
z
" clip-path="url(#p5add0824ff)" style="fill: #e1e1e1"/>
    <path d="M 352.943258 299.825351 
L 324.501248 351.687046 
L 387.646308 342.798878 
z
" clip-path="url(#p5add0824ff)" style="fill: #a4a4a4"/>
    <path d="M 233.577171 349.295231 
L 280.29185 352.344734 
L 242.822356 304.172766 
z
" clip-path="url(#p5add0824ff)" style="fill: #a3a3a3"/>
    <path d="M 242.822356 304.172766 
L 254.472641 261.52605 
L 209.872594 258.285256 
z
" clip-path="url(#p5add0824ff)" style="fill: #c2c2c2"/>
    <path d="M 312.143941 247.180051 
L 352.943258 299.825351 
L 376.138766 238.831082 
z
" clip-path="url(#p5add0824ff)" style="fill: #c9c9c9"/>
    <path d="M 312.143941 247.180051 
L 277.946338 201.241378 
L 254.472641 261.52605 
z
" clip-path="url(#p5add0824ff)" style="fill: #d6d6d6"/>
    <path d="M 289.077143 307.495941 
L 280.29185 352.344734 
L 324.501248 351.687046 
z
" clip-path="url(#p5add0824ff)" style="fill: #a3a3a3"/>
    <path d="M 289.077143 307.495941 
L 242.822356 304.172766 
L 280.29185 352.344734 
z
" clip-path="url(#p5add0824ff)" style="fill: #acacac"/>
    <path d="M 289.077143 307.495941 
L 324.501248 351.687046 
L 352.943258 299.825351 
z
" clip-path="url(#p5add0824ff)" style="fill: #adadad"/>
    <path d="M 289.077143 307.495941 
L 254.472641 261.52605 
L 242.822356 304.172766 
z
" clip-path="url(#p5add0824ff)" style="fill: #bcbcbc"/>
    <path d="M 289.077143 307.495941 
L 352.943258 299.825351 
L 312.143941 247.180051 
z
" clip-path="url(#p5add0824ff)" style="fill: #bfbfbf"/>
    <path d="M 289.077143 307.495941 
L 312.143941 247.180051 
L 254.472641 261.52605 
z
" clip-path="url(#p5add0824ff)" style="fill: #c6c6c6"/>
   </g>
  </g>
 </g>
 <defs>
  <clipPath id="p5add0824ff">
   <rect x="73.44" y="69.12" width="443.52" height="443.52"/>
  </clipPath>
 </defs>
</svg>
