<?xml version="1.0" encoding="utf-8" standalone="no"?>
<!DOCTYPE svg PUBLIC "-//W3C//DTD SVG 1.1//EN"
  "http://www.w3.org/Graphics/SVG/1.1/DTD/svg11.dtd">
<svg xmlns:xlink="http://www.w3.org/1999/xlink" width="576pt" height="576pt" viewBox="0 0 576 576" xmlns="http://www.w3.org/2000/svg" version="1.1">
 <metadata>
  <rdf:RDF xmlns:dc="http://purl.org/dc/elements/1.1/" xmlns:cc="http://creativecommons.org/ns#" xmlns:rdf="http://www.w3.org/1999/02/22-rdf-syntax-ns#">
   <cc:Work>
    <dc:type rdf:resource="http://purl.org/dc/dcmitype/StillImage"/>
    <dc:date>2025-03-13T16:58:14.127209</dc:date>
    <dc:format>image/svg+xml</dc:format>
    <dc:creator>
     <cc:Agent>
      <dc:title>Matplotlib v3.10.1, https://matplotlib.org/</dc:title>
     </cc:Agent>
    </dc:creator>
   </cc:Work>
  </rdf:RDF>
 </metadata>
 <defs>
  <style type="text/css">*{stroke-linejoin: round; stroke-linecap: butt}</style>
 </defs>
 <g id="figure_1">
  <g id="patch_1">
   <path d="M 0 576 
L 576 576 
L 576 0 
L 0 0 
L 0 576 
z
" style="fill: none"/>
  </g>
  <g id="patch_2">
   <path d="M 73.44 512.64 
L 516.96 512.64 
L 516.96 69.12 
L 73.44 69.12 
L 73.44 512.64 
z
" style="fill: none"/>
  </g>
  <g id="axes_1">
   <g id="Poly3DCollection_1">
    <path d="M 367.937873 342.688798 
L 273.000296 365.688965 
L 311.430721 265.783598 
z
" clip-path="url(#p70210eb695)" style="fill: #292929"/>
    <path d="M 367.937873 342.688798 
L 311.430721 265.783598 
L 388.396696 271.929274 
z
" clip-path="url(#p70210eb695)" style="fill: #3c3c3c"/>
    <path d="M 311.430721 265.783598 
L 273.000296 365.688965 
L 206.089743 279.715641 
z
" clip-path="url(#p70210eb695)" style="fill: #363636"/>
    <path d="M 311.430721 265.783598 
L 325.883576 191.116666 
L 388.396696 271.929274 
z
" clip-path="url(#p70210eb695)" style="fill: #5c5c5c"/>
    <path d="M 252.150326 193.370652 
L 311.430721 265.783598 
L 206.089743 279.715641 
z
" clip-path="url(#p70210eb695)" style="fill: #5b5b5b"/>
    <path d="M 252.150326 193.370652 
L 325.883576 191.116666 
L 311.430721 265.783598 
z
" clip-path="url(#p70210eb695)" style="fill: #6d6d6d"/>
    <path d="M 367.937873 342.688798 
L 337.703218 405.934963 
L 273.000296 365.688965 
z
" clip-path="url(#p70210eb695)" style="fill: #111111"/>
    <path d="M 396.590013 202.270694 
L 388.396696 271.929274 
L 325.883576 191.116666 
z
" clip-path="url(#p70210eb695)" style="fill: #6e6e6e"/>
    <path d="M 183.511808 368.59641 
L 206.089743 279.715641 
L 273.000296 365.688965 
z
" clip-path="url(#p70210eb695)" style="fill: #292929"/>
    <path d="M 367.937873 342.688798 
L 388.396696 271.929274 
L 447.82686 304.53163 
z
" clip-path="url(#p70210eb695)" style="fill: #3c3c3c"/>
    <path d="M 252.150326 193.370652 
L 206.089743 279.715641 
L 184.461426 208.822378 
z
" clip-path="url(#p70210eb695)" style="fill: #6d6d6d"/>
    <path d="M 252.150326 193.370652 
L 311.767749 128.448828 
L 325.883576 191.116666 
z
" clip-path="url(#p70210eb695)" style="fill: #929292"/>
    <path d="M 273.000296 365.688965 
L 337.703218 405.934963 
L 237.340368 420.6088 
z
" clip-path="url(#p70210eb695)" style="fill: #080808"/>
    <path d="M 183.511808 368.59641 
L 273.000296 365.688965 
L 237.340368 420.6088 
z
" clip-path="url(#p70210eb695)" style="fill: #111111"/>
    <path d="M 367.937873 342.688798 
L 409.423445 407.61648 
L 337.703218 405.934963 
z
" clip-path="url(#p70210eb695)" style="fill: #111111"/>
    <path d="M 396.590013 202.270694 
L 455.292082 225.764491 
L 388.396696 271.929274 
z
" clip-path="url(#p70210eb695)" style="fill: #6e6e6e"/>
    <path d="M 206.089743 279.715641 
L 146.587938 304.295427 
L 184.461426 208.822378 
z
" clip-path="url(#p70210eb695)" style="fill: #5c5c5c"/>
    <path d="M 183.511808 368.59641 
L 146.587938 304.295427 
L 206.089743 279.715641 
z
" clip-path="url(#p70210eb695)" style="fill: #3c3c3c"/>
    <path d="M 396.590013 202.270694 
L 325.883576 191.116666 
L 391.106048 142.513195 
z
" clip-path="url(#p70210eb695)" style="fill: #919191"/>
    <path d="M 367.937873 342.688798 
L 447.82686 304.53163 
L 409.423445 407.61648 
z
" clip-path="url(#p70210eb695)" style="fill: #292929"/>
    <path d="M 447.82686 304.53163 
L 388.396696 271.929274 
L 455.292082 225.764491 
z
" clip-path="url(#p70210eb695)" style="fill: #5c5c5c"/>
    <path d="M 252.150326 193.370652 
L 184.461426 208.822378 
L 202.925726 141.396061 
z
" clip-path="url(#p70210eb695)" style="fill: #929292"/>
    <path d="M 311.767749 128.448828 
L 391.106048 142.513195 
L 325.883576 191.116666 
z
" clip-path="url(#p70210eb695)" style="fill: #a3a3a3"/>
    <path d="M 301.193514 453.472216 
L 237.340368 420.6088 
L 337.703218 405.934963 
z
" clip-path="url(#p70210eb695)"/>
    <path d="M 252.150326 193.370652 
L 202.925726 141.396061 
L 311.767749 128.448828 
z
" clip-path="url(#p70210eb695)" style="fill: #a4a4a4"/>
    <path d="M 396.590013 202.270694 
L 391.106048 142.513195 
L 455.292082 225.764491 
z
" clip-path="url(#p70210eb695)" style="fill: #919191"/>
    <path d="M 131.685785 235.95382 
L 184.461426 208.822378 
L 146.587938 304.295427 
z
" clip-path="url(#p70210eb695)" style="fill: #6e6e6e"/>
    <path d="M 409.423445 407.61648 
L 366.793877 462.196966 
L 337.703218 405.934963 
z
" clip-path="url(#p70210eb695)" style="fill: #080808"/>
    <path d="M 183.511808 368.59641 
L 237.340368 420.6088 
L 190.647455 439.863635 
z
" clip-path="url(#p70210eb695)" style="fill: #111111"/>
    <path d="M 301.193514 453.472216 
L 337.703218 405.934963 
L 366.793877 462.196966 
z
" clip-path="url(#p70210eb695)"/>
    <path d="M 183.511808 368.59641 
L 120.154701 349.695455 
L 146.587938 304.295427 
z
" clip-path="url(#p70210eb695)" style="fill: #3c3c3c"/>
    <path d="M 493.53474 259.117648 
L 447.82686 304.53163 
L 455.292082 225.764491 
z
" clip-path="url(#p70210eb695)" style="fill: #6d6d6d"/>
    <path d="M 202.925726 141.396061 
L 184.461426 208.822378 
L 141.667441 172.757413 
z
" clip-path="url(#p70210eb695)" style="fill: #a3a3a3"/>
    <path d="M 483.664856 361.160772 
L 409.423445 407.61648 
L 447.82686 304.53163 
z
" clip-path="url(#p70210eb695)" style="fill: #363636"/>
    <path d="M 131.685785 235.95382 
L 141.667441 172.757413 
L 184.461426 208.822378 
z
" clip-path="url(#p70210eb695)" style="fill: #919191"/>
    <path d="M 301.193514 453.472216 
L 262.935955 477.994038 
L 237.340368 420.6088 
z
" clip-path="url(#p70210eb695)"/>
    <path d="M 452.795985 164.479462 
L 455.292082 225.764491 
L 391.106048 142.513195 
z
" clip-path="url(#p70210eb695)" style="fill: #a3a3a3"/>
    <path d="M 371.873362 101.254853 
L 391.106048 142.513195 
L 311.767749 128.448828 
z
" clip-path="url(#p70210eb695)" style="fill: #c3c3c3"/>
    <path d="M 183.511808 368.59641 
L 190.647455 439.863635 
L 120.154701 349.695455 
z
" clip-path="url(#p70210eb695)" style="fill: #292929"/>
    <path d="M 131.685785 235.95382 
L 146.587938 304.295427 
L 101.931937 271.769844 
z
" clip-path="url(#p70210eb695)" style="fill: #6e6e6e"/>
    <path d="M 202.925726 141.396061 
L 271.064275 86.091472 
L 311.767749 128.448828 
z
" clip-path="url(#p70210eb695)" style="fill: #c9c9c9"/>
    <path d="M 190.647455 439.863635 
L 237.340368 420.6088 
L 262.935955 477.994038 
z
" clip-path="url(#p70210eb695)" style="fill: #080808"/>
    <path d="M 493.53474 259.117648 
L 483.664856 361.160772 
L 447.82686 304.53163 
z
" clip-path="url(#p70210eb695)" style="fill: #5b5b5b"/>
    <path d="M 493.53474 259.117648 
L 455.292082 225.764491 
L 452.795985 164.479462 
z
" clip-path="url(#p70210eb695)" style="fill: #929292"/>
    <path d="M 301.193514 453.472216 
L 262.935955 477.994038 
L 366.793877 462.196966 
z
" clip-path="url(#p70210eb695)"/>
    <path d="M 120.154701 349.695455 
L 101.931937 271.769844 
L 146.587938 304.295427 
z
" clip-path="url(#p70210eb695)" style="fill: #5c5c5c"/>
    <path d="M 371.873362 101.254853 
L 452.795985 164.479462 
L 391.106048 142.513195 
z
" clip-path="url(#p70210eb695)" style="fill: #c3c3c3"/>
    <path d="M 424.950071 444.368485 
L 366.793877 462.196966 
L 409.423445 407.61648 
z
" clip-path="url(#p70210eb695)" style="fill: #111111"/>
    <path d="M 371.873362 101.254853 
L 311.767749 128.448828 
L 271.064275 86.091472 
z
" clip-path="url(#p70210eb695)" style="fill: #d6d6d6"/>
    <path d="M 131.685785 235.95382 
L 101.931937 271.769844 
L 141.667441 172.757413 
z
" clip-path="url(#p70210eb695)" style="fill: #919191"/>
    <path d="M 424.950071 444.368485 
L 409.423445 407.61648 
L 483.664856 361.160772 
z
" clip-path="url(#p70210eb695)" style="fill: #292929"/>
    <path d="M 176.440705 124.120644 
L 202.925726 141.396061 
L 141.667441 172.757413 
z
" clip-path="url(#p70210eb695)" style="fill: #c3c3c3"/>
    <path d="M 176.440705 124.120644 
L 271.064275 86.091472 
L 202.925726 141.396061 
z
" clip-path="url(#p70210eb695)" style="fill: #d6d6d6"/>
    <path d="M 331.706219 486.211642 
L 366.793877 462.196966 
L 262.935955 477.994038 
z
" clip-path="url(#p70210eb695)" style="fill: #080808"/>
    <path d="M 120.154701 349.695455 
L 190.647455 439.863635 
L 143.532401 410.105456 
z
" clip-path="url(#p70210eb695)" style="fill: #363636"/>
    <path d="M 228.366595 474.09637 
L 190.647455 439.863635 
L 262.935955 477.994038 
z
" clip-path="url(#p70210eb695)" style="fill: #111111"/>
    <path d="M 424.950071 444.368485 
L 366.793877 462.196966 
L 331.706219 486.211642 
z
" clip-path="url(#p70210eb695)" style="fill: #111111"/>
    <path d="M 493.53474 259.117648 
L 504.304599 298.256527 
L 483.664856 361.160772 
z
" clip-path="url(#p70210eb695)" style="fill: #6d6d6d"/>
    <path d="M 493.53474 259.117648 
L 452.795985 164.479462 
L 490.106718 217.258613 
z
" clip-path="url(#p70210eb695)" style="fill: #a4a4a4"/>
    <path d="M 113.815346 206.561114 
L 141.667441 172.757413 
L 101.931937 271.769844 
z
" clip-path="url(#p70210eb695)" style="fill: #a3a3a3"/>
    <path d="M 101.413609 311.651919 
L 101.931937 271.769844 
L 120.154701 349.695455 
z
" clip-path="url(#p70210eb695)" style="fill: #6d6d6d"/>
    <path d="M 371.873362 101.254853 
L 417.083333 122.417792 
L 452.795985 164.479462 
z
" clip-path="url(#p70210eb695)" style="fill: #d6d6d6"/>
    <path d="M 371.873362 101.254853 
L 271.064275 86.091472 
L 340.600895 85.975128 
z
" clip-path="url(#p70210eb695)" style="fill: #eeeeee"/>
    <path d="M 176.440705 124.120644 
L 141.667441 172.757413 
L 113.815346 206.561114 
z
" clip-path="url(#p70210eb695)" style="fill: #c3c3c3"/>
    <path d="M 424.950071 444.368485 
L 483.664856 361.160772 
L 466.456698 401.048111 
z
" clip-path="url(#p70210eb695)" style="fill: #3c3c3c"/>
    <path d="M 228.366595 474.09637 
L 331.706219 486.211642 
L 262.935955 477.994038 
z
" clip-path="url(#p70210eb695)" style="fill: #111111"/>
    <path d="M 228.366595 474.09637 
L 143.532401 410.105456 
L 190.647455 439.863635 
z
" clip-path="url(#p70210eb695)" style="fill: #292929"/>
    <path d="M 493.53474 259.117648 
L 490.106718 217.258613 
L 504.304599 298.256527 
z
" clip-path="url(#p70210eb695)" style="fill: #929292"/>
    <path d="M 483.664856 361.160772 
L 504.304599 298.256527 
L 466.456698 401.048111 
z
" clip-path="url(#p70210eb695)" style="fill: #5c5c5c"/>
    <path d="M 101.413609 311.651919 
L 120.154701 349.695455 
L 143.532401 410.105456 
z
" clip-path="url(#p70210eb695)" style="fill: #5b5b5b"/>
    <path d="M 101.413609 311.651919 
L 113.815346 206.561114 
L 101.931937 271.769844 
z
" clip-path="url(#p70210eb695)" style="fill: #929292"/>
    <path d="M 176.440705 124.120644 
L 232.219146 98.456449 
L 271.064275 86.091472 
z
" clip-path="url(#p70210eb695)" style="fill: #eeeeee"/>
    <path d="M 371.873362 101.254853 
L 340.600895 85.975128 
L 417.083333 122.417792 
z
" clip-path="url(#p70210eb695)" style="fill: #eeeeee"/>
    <path d="M 452.795985 164.479462 
L 417.083333 122.417792 
L 490.106718 217.258613 
z
" clip-path="url(#p70210eb695)" style="fill: #c9c9c9"/>
    <path d="M 271.064275 86.091472 
L 232.219146 98.456449 
L 340.600895 85.975128 
z
" clip-path="url(#p70210eb695)" style="fill: #f7f7f7"/>
    <path d="M 424.950071 444.368485 
L 331.706219 486.211642 
L 407.343847 439.88699 
z
" clip-path="url(#p70210eb695)" style="fill: #292929"/>
    <path d="M 424.950071 444.368485 
L 407.343847 439.88699 
L 466.456698 401.048111 
z
" clip-path="url(#p70210eb695)" style="fill: #3c3c3c"/>
    <path d="M 176.440705 124.120644 
L 113.815346 206.561114 
L 182.644094 150.454456 
z
" clip-path="url(#p70210eb695)" style="fill: #d6d6d6"/>
    <path d="M 483.598096 337.542154 
L 466.456698 401.048111 
L 504.304599 298.256527 
z
" clip-path="url(#p70210eb695)" style="fill: #6e6e6e"/>
    <path d="M 228.366595 474.09637 
L 289.517596 457.622674 
L 331.706219 486.211642 
z
" clip-path="url(#p70210eb695)" style="fill: #292929"/>
    <path d="M 176.440705 124.120644 
L 182.644094 150.454456 
L 232.219146 98.456449 
z
" clip-path="url(#p70210eb695)" style="fill: #eeeeee"/>
    <path d="M 228.366595 474.09637 
L 203.30898 439.883154 
L 143.532401 410.105456 
z
" clip-path="url(#p70210eb695)" style="fill: #3c3c3c"/>
    <path d="M 490.106718 217.258613 
L 472.09132 263.432245 
L 504.304599 298.256527 
z
" clip-path="url(#p70210eb695)" style="fill: #a3a3a3"/>
    <path d="M 301.193514 101.402075 
L 340.600895 85.975128 
L 232.219146 98.456449 
z
" clip-path="url(#p70210eb695)" style="fill: #ffffff"/>
    <path d="M 101.413609 311.651919 
L 143.532401 410.105456 
L 132.701036 349.530899 
z
" clip-path="url(#p70210eb695)" style="fill: #6d6d6d"/>
    <path d="M 101.413609 311.651919 
L 137.773072 262.992299 
L 113.815346 206.561114 
z
" clip-path="url(#p70210eb695)" style="fill: #a4a4a4"/>
    <path d="M 417.083333 122.417792 
L 340.600895 85.975128 
L 372.211086 133.935907 
z
" clip-path="url(#p70210eb695)" style="fill: #f7f7f7"/>
    <path d="M 331.706219 486.211642 
L 289.517596 457.622674 
L 407.343847 439.88699 
z
" clip-path="url(#p70210eb695)" style="fill: #363636"/>
    <path d="M 483.598096 337.542154 
L 504.304599 298.256527 
L 472.09132 263.432245 
z
" clip-path="url(#p70210eb695)" style="fill: #919191"/>
    <path d="M 432.794383 191.275516 
L 490.106718 217.258613 
L 417.083333 122.417792 
z
" clip-path="url(#p70210eb695)" style="fill: #d6d6d6"/>
    <path d="M 143.532401 410.105456 
L 203.30898 439.883154 
L 132.701036 349.530899 
z
" clip-path="url(#p70210eb695)" style="fill: #5c5c5c"/>
    <path d="M 228.366595 474.09637 
L 203.30898 439.883154 
L 289.517596 457.622674 
z
" clip-path="url(#p70210eb695)" style="fill: #3c3c3c"/>
    <path d="M 301.193514 101.402075 
L 372.211086 133.935907 
L 340.600895 85.975128 
z
" clip-path="url(#p70210eb695)" style="fill: #ffffff"/>
    <path d="M 483.598096 337.542154 
L 466.456698 401.048111 
L 432.339591 370.342934 
z
" clip-path="url(#p70210eb695)" style="fill: #6e6e6e"/>
    <path d="M 137.773072 262.992299 
L 182.644094 150.454456 
L 113.815346 206.561114 
z
" clip-path="url(#p70210eb695)" style="fill: #c9c9c9"/>
    <path d="M 407.343847 439.88699 
L 432.339591 370.342934 
L 466.456698 401.048111 
z
" clip-path="url(#p70210eb695)" style="fill: #5c5c5c"/>
    <path d="M 101.413609 311.651919 
L 132.701036 349.530899 
L 137.773072 262.992299 
z
" clip-path="url(#p70210eb695)" style="fill: #929292"/>
    <path d="M 432.794383 191.275516 
L 472.09132 263.432245 
L 490.106718 217.258613 
z
" clip-path="url(#p70210eb695)" style="fill: #c3c3c3"/>
    <path d="M 301.193514 101.402075 
L 232.219146 98.456449 
L 259.742055 147.453548 
z
" clip-path="url(#p70210eb695)" style="fill: #ffffff"/>
    <path d="M 432.794383 191.275516 
L 417.083333 122.417792 
L 372.211086 133.935907 
z
" clip-path="url(#p70210eb695)" style="fill: #eeeeee"/>
    <path d="M 182.644094 150.454456 
L 259.742055 147.453548 
L 232.219146 98.456449 
z
" clip-path="url(#p70210eb695)" style="fill: #f7f7f7"/>
    <path d="M 483.598096 337.542154 
L 472.09132 263.432245 
L 432.339591 370.342934 
z
" clip-path="url(#p70210eb695)" style="fill: #919191"/>
    <path d="M 192.865377 378.701404 
L 132.701036 349.530899 
L 203.30898 439.883154 
z
" clip-path="url(#p70210eb695)" style="fill: #6e6e6e"/>
    <path d="M 301.193514 101.402075 
L 259.742055 147.453548 
L 372.211086 133.935907 
z
" clip-path="url(#p70210eb695)" style="fill: #ffffff"/>
    <path d="M 357.710163 390.34799 
L 407.343847 439.88699 
L 289.517596 457.622674 
z
" clip-path="url(#p70210eb695)" style="fill: #5b5b5b"/>
    <path d="M 289.517596 457.622674 
L 203.30898 439.883154 
L 272.63386 393.352541 
z
" clip-path="url(#p70210eb695)" style="fill: #5c5c5c"/>
    <path d="M 357.710163 390.34799 
L 432.339591 370.342934 
L 407.343847 439.88699 
z
" clip-path="url(#p70210eb695)" style="fill: #6d6d6d"/>
    <path d="M 137.773072 262.992299 
L 132.701036 349.530899 
L 199.882211 299.939975 
z
" clip-path="url(#p70210eb695)" style="fill: #a3a3a3"/>
    <path d="M 223.655809 217.736865 
L 182.644094 150.454456 
L 137.773072 262.992299 
z
" clip-path="url(#p70210eb695)" style="fill: #d6d6d6"/>
    <path d="M 192.865377 378.701404 
L 272.63386 393.352541 
L 203.30898 439.883154 
z
" clip-path="url(#p70210eb695)" style="fill: #6e6e6e"/>
    <path d="M 432.794383 191.275516 
L 411.300861 290.873085 
L 472.09132 263.432245 
z
" clip-path="url(#p70210eb695)" style="fill: #c3c3c3"/>
    <path d="M 411.300861 290.873085 
L 432.339591 370.342934 
L 472.09132 263.432245 
z
" clip-path="url(#p70210eb695)" style="fill: #a3a3a3"/>
    <path d="M 192.865377 378.701404 
L 199.882211 299.939975 
L 132.701036 349.530899 
z
" clip-path="url(#p70210eb695)" style="fill: #919191"/>
    <path d="M 223.655809 217.736865 
L 259.742055 147.453548 
L 182.644094 150.454456 
z
" clip-path="url(#p70210eb695)" style="fill: #eeeeee"/>
    <path d="M 432.794383 191.275516 
L 372.211086 133.935907 
L 333.986785 190.900136 
z
" clip-path="url(#p70210eb695)" style="fill: #eeeeee"/>
    <path d="M 333.986785 190.900136 
L 372.211086 133.935907 
L 259.742055 147.453548 
z
" clip-path="url(#p70210eb695)" style="fill: #f7f7f7"/>
    <path d="M 357.710163 390.34799 
L 289.517596 457.622674 
L 272.63386 393.352541 
z
" clip-path="url(#p70210eb695)" style="fill: #6d6d6d"/>
    <path d="M 357.710163 390.34799 
L 432.339591 370.342934 
L 411.300861 290.873085 
z
" clip-path="url(#p70210eb695)" style="fill: #929292"/>
    <path d="M 223.655809 217.736865 
L 137.773072 262.992299 
L 199.882211 299.939975 
z
" clip-path="url(#p70210eb695)" style="fill: #c3c3c3"/>
    <path d="M 432.794383 191.275516 
L 333.986785 190.900136 
L 411.300861 290.873085 
z
" clip-path="url(#p70210eb695)" style="fill: #d6d6d6"/>
    <path d="M 192.865377 378.701404 
L 272.63386 393.352541 
L 199.882211 299.939975 
z
" clip-path="url(#p70210eb695)" style="fill: #919191"/>
    <path d="M 223.655809 217.736865 
L 333.986785 190.900136 
L 259.742055 147.453548 
z
" clip-path="url(#p70210eb695)" style="fill: #eeeeee"/>
    <path d="M 357.710163 390.34799 
L 289.077143 307.495941 
L 272.63386 393.352541 
z
" clip-path="url(#p70210eb695)" style="fill: #929292"/>
    <path d="M 357.710163 390.34799 
L 411.300861 290.873085 
L 289.077143 307.495941 
z
" clip-path="url(#p70210eb695)" style="fill: #a4a4a4"/>
    <path d="M 289.077143 307.495941 
L 199.882211 299.939975 
L 272.63386 393.352541 
z
" clip-path="url(#p70210eb695)" style="fill: #a3a3a3"/>
    <path d="M 411.300861 290.873085 
L 333.986785 190.900136 
L 289.077143 307.495941 
z
" clip-path="url(#p70210eb695)" style="fill: #c9c9c9"/>
    <path d="M 223.655809 217.736865 
L 199.882211 299.939975 
L 289.077143 307.495941 
z
" clip-path="url(#p70210eb695)" style="fill: #c3c3c3"/>
    <path d="M 223.655809 217.736865 
L 289.077143 307.495941 
L 333.986785 190.900136 
z
" clip-path="url(#p70210eb695)" style="fill: #d6d6d6"/>
   </g>
  </g>
 </g>
 <defs>
  <clipPath id="p70210eb695">
   <rect x="73.44" y="69.12" width="443.52" height="443.52"/>
  </clipPath>
 </defs>
</svg>
