<?xml version="1.0" encoding="utf-8" standalone="no"?>
<!DOCTYPE svg PUBLIC "-//W3C//DTD SVG 1.1//EN"
  "http://www.w3.org/Graphics/SVG/1.1/DTD/svg11.dtd">
<svg xmlns:xlink="http://www.w3.org/1999/xlink" width="576pt" height="576pt" viewBox="0 0 576 576" xmlns="http://www.w3.org/2000/svg" version="1.1">
 <metadata>
  <rdf:RDF xmlns:dc="http://purl.org/dc/elements/1.1/" xmlns:cc="http://creativecommons.org/ns#" xmlns:rdf="http://www.w3.org/1999/02/22-rdf-syntax-ns#">
   <cc:Work>
    <dc:type rdf:resource="http://purl.org/dc/dcmitype/StillImage"/>
    <dc:date>2025-03-14T07:55:41.823943</dc:date>
    <dc:format>image/svg+xml</dc:format>
    <dc:creator>
     <cc:Agent>
      <dc:title>Matplotlib v3.10.1, https://matplotlib.org/</dc:title>
     </cc:Agent>
    </dc:creator>
   </cc:Work>
  </rdf:RDF>
 </metadata>
 <defs>
  <style type="text/css">*{stroke-linejoin: round; stroke-linecap: butt}</style>
 </defs>
 <g id="figure_1">
  <g id="patch_1">
   <path d="M 0 576 
L 576 576 
L 576 0 
L 0 0 
L 0 576 
z
" style="fill: none"/>
  </g>
  <g id="patch_2">
   <path d="M 10.8 565.2 
L 565.2 565.2 
L 565.2 10.8 
L 10.8 10.8 
L 10.8 565.2 
z
" style="fill: none"/>
  </g>
  <g id="axes_1">
   <g id="Poly3DCollection_1">
    <path d="M 414.737517 177.238368 
L 295.491892 491.24027 
L 83.607231 219.342275 
z
" clip-path="url(#p153024ae01)" style="fill: #959595"/>
    <path d="M 523.49762 346.327692 
L 295.491892 491.24027 
L 414.737517 177.238368 
z
" clip-path="url(#p153024ae01)" style="fill: #505050"/>
    <path d="M 83.607231 219.342275 
L 295.491892 51.152593 
L 414.737517 177.238368 
z
" clip-path="url(#p153024ae01)" style="fill: #b7b7b7"/>
    <path d="M 83.607231 219.342275 
L 295.491892 491.24027 
L 160.081722 397.776756 
z
" clip-path="url(#p153024ae01)" style="fill: #d9d9d9"/>
    <path d="M 414.737517 177.238368 
L 295.491892 51.152593 
L 523.49762 346.327692 
z
" clip-path="url(#p153024ae01)" style="fill: #727272"/>
    <path d="M 295.491892 491.24027 
L 160.081722 397.776756 
L 523.49762 346.327692 
z
" clip-path="url(#p153024ae01)" style="fill: #b7b7b7"/>
    <path d="M 160.081722 397.776756 
L 295.491892 51.152593 
L 83.607231 219.342275 
z
" clip-path="url(#p153024ae01)" style="fill: #fcfcfc"/>
    <path d="M 523.49762 346.327692 
L 295.491892 51.152593 
L 160.081722 397.776756 
z
" clip-path="url(#p153024ae01)" style="fill: #b7b7b7"/>
   </g>
  </g>
 </g>
 <defs>
  <clipPath id="p153024ae01">
   <rect x="10.8" y="10.8" width="554.4" height="554.4"/>
  </clipPath>
 </defs>
</svg>
